<svg xmlns="http://www.w3.org/2000/svg" width="32" height="32" fill="none" viewBox="0 0 32 32"><path fill="#EA4E1B" d="M29.723 11.86a8.04 8.04 0 0 0-.173-.167V9.892A3.252 3.252 0 0 0 26.3 6.643h-5.698V5.011a3.164 3.164 0 0 0-3.16-3.16h-5.336a3.164 3.164 0 0 0-3.16 3.16v1.632H3.248A3.252 3.252 0 0 0 0 9.892v14.46A3.252 3.252 0 0 0 3.248 27.6h6.783a.469.469 0 0 0 0-.938H3.248a2.314 2.314 0 0 1-2.31-2.31v-9.457a5.508 5.508 0 0 0 4.157 2.42v1.707a1.77 1.77 0 0 0 1.768 1.768 1.77 1.77 0 0 0 1.767-1.768v-1.691h7.833v.022c0 1.596.479 3.119 1.367 4.404l-.995.996a1.03 1.03 0 0 0-1.01.261l-3.822 3.823a1.94 1.94 0 1 0 2.744 2.744l3.823-3.822a1.03 1.03 0 0 0 .261-1.01l.996-.996a7.787 7.787 0 0 0 8.785.014v.584a2.314 2.314 0 0 1-2.31 2.311h-7.405a.469.469 0 0 0 0 .938h7.404a3.252 3.252 0 0 0 3.249-3.249v-1.338a7.763 7.763 0 0 0 .173-11.153zM9.884 5.01c0-1.225.997-2.222 2.223-2.222h5.335c1.226 0 2.224.997 2.224 2.223v1.632h-1V5.011c0-.675-.549-1.223-1.224-1.223h-5.335c-.674 0-1.223.548-1.223 1.223v1.632h-1V5.011zm1.937 1.633V5.011c0-.158.129-.286.286-.286h5.335c.158 0 .286.128.286.286v1.632h-5.907zM7.693 17.581h-1.66v-1.578a.831.831 0 0 1 1.66 0v1.578zm-.83 2.271a.831.831 0 0 1-.83-.83v-.503h1.66v.503c0 .458-.373.83-.83.83zm1.767-3.459v-.39a1.77 1.77 0 0 0-1.767-1.767 1.77 1.77 0 0 0-1.768 1.767v.371a4.574 4.574 0 0 1-4.158-4.549V9.892A2.314 2.314 0 0 1 3.248 7.58h23.053a2.314 2.314 0 0 1 2.311 2.31v1.047c-2.964-2.034-7.139-1.812-9.874.923a7.709 7.709 0 0 0-2.216 4.532H8.63zm5.454 12.525a1.003 1.003 0 1 1-1.418-1.418l2.648-2.649 1.419 1.42-2.649 2.647zm3.823-3.822l-.512.511-1.418-1.418.511-.512a.092.092 0 0 1 .13 0l1.289 1.288a.092.092 0 0 1 0 .13zm.354-1.102l-.67-.67.822-.824a7.936 7.936 0 0 0 .67.67l-.822.823zm1.14-1.811a6.785 6.785 0 0 1-2-4.83c0-1.824.71-3.54 2-4.83a6.826 6.826 0 0 1 9.66 0 6.826 6.826 0 0 1 0 9.66 6.826 6.826 0 0 1-9.66 0z"/><path fill="#EA4E1B" d="M29.373 17.997a.469.469 0 0 0-.558.358 4.69 4.69 0 0 1-7.903 2.316 4.698 4.698 0 0 1 0-6.636 4.69 4.69 0 0 1 7.903 2.314.469.469 0 1 0 .916-.2 5.612 5.612 0 0 0-1.52-2.777 5.627 5.627 0 0 0-7.961 0 5.636 5.636 0 0 0 0 7.962 5.636 5.636 0 0 0 7.962 0 5.61 5.61 0 0 0 1.52-2.78.469.469 0 0 0-.359-.557z"/></svg>