<svg xmlns="http://www.w3.org/2000/svg" width="20" height="17" fill="none" viewBox="0 0 20 17"><path fill="#EA4E1B" d="M9.585 6.514a3.257 3.257 0 100-6.514 3.257 3.257 0 000 6.514zM16.174 6.514a2.06 2.06 0 100-4.118 2.06 2.06 0 000 4.118zM2.995 6.514a2.06 2.06 0 100-4.118 2.06 2.06 0 000 4.118zM5.024 8.363c-.81-.664-1.545-.576-2.482-.576A2.537 2.537 0 000 10.314v4.089A1.1 1.1 0 001.101 15.5c2.622 0 2.306.047 2.306-.113 0-2.898-.343-5.022 1.617-7.024z"/><path fill="#EA4E1B" d="M10.476 7.802c-1.637-.136-3.06.002-4.287 1.015-2.054 1.645-1.658 3.86-1.658 6.57 0 .716.583 1.31 1.31 1.31 7.903 0 8.218.256 8.686-.782.154-.351.112-.24.112-3.597 0-2.667-2.309-4.516-4.163-4.516zM16.626 7.787c-.942 0-1.672-.087-2.482.577 1.946 1.986 1.617 3.966 1.617 7.023 0 .161-.262.113 2.267.113.629 0 1.14-.51 1.14-1.136v-4.05a2.537 2.537 0 00-2.542-2.527z"/></svg>