<svg xmlns="http://www.w3.org/2000/svg" width="20" height="20" fill="none" viewBox="0 0 20 20"><g fill="#8A8A8A" clip-path="url(#clip0_798_15832)"><path d="M10 8.086a3.402 3.402 0 003.398-3.399A3.402 3.402 0 0010 1.29a3.402 3.402 0 00-3.398 3.399A3.402 3.402 0 0010 8.085zm0-5.625a2.23 2.23 0 012.227 2.227A2.23 2.23 0 0110 6.913a2.23 2.23 0 01-2.227-2.226A2.23 2.23 0 0110 2.46zM16.875 8.086a2.15 2.15 0 002.148-2.149 2.15 2.15 0 00-2.148-2.148 2.15 2.15 0 00-2.148 2.148 2.15 2.15 0 002.148 2.149zm0-3.125a.978.978 0 010 1.953.978.978 0 010-1.953zM17.348 9.414h-.907c-1.067 0-1.99.631-2.41 1.537a4.716 4.716 0 00-3.485-1.537H9.454c-1.378 0-2.62.593-3.485 1.537a2.656 2.656 0 00-2.41-1.537h-.907A2.647 2.647 0 000 12.05v4.266c0 .632.515 1.145 1.149 1.145h3.583c.06.7.648 1.25 1.363 1.25h7.81a1.37 1.37 0 001.363-1.25h3.542c.656 0 1.19-.532 1.19-1.185V12.05a2.647 2.647 0 00-2.652-2.636zM1.172 12.05c0-.807.664-1.464 1.48-1.464h.907c.816 0 1.48.657 1.48 1.464v.402c-.394 1.025-.312 1.64-.312 3.837H1.172V12.05zm12.93 5.293a.196.196 0 01-.197.196h-7.81a.196.196 0 01-.197-.196v-3.201a3.56 3.56 0 013.556-3.556h1.092a3.56 3.56 0 013.556 3.555v3.202zm4.726-1.067c0 .02.219.013-3.555.013 0-2.213.081-2.813-.312-3.837v-.402c0-.807.664-1.464 1.48-1.464h.907c.816 0 1.48.657 1.48 1.464v4.226zM3.125 8.086a2.15 2.15 0 002.148-2.149A2.15 2.15 0 003.125 3.79 2.15 2.15 0 00.977 5.937a2.15 2.15 0 002.148 2.149zm0-3.125a.978.978 0 010 1.953.978.978 0 010-1.953z"/></g><defs><clipPath id="clip0_798_15832"><path fill="#fff" d="M0 0h20v20H0z"/></clipPath></defs></svg>