<svg xmlns="http://www.w3.org/2000/svg" width="16" height="16" fill="none" viewBox="0 0 16 16"><g clip-path="url(#clip0_505_25606)"><path fill="#8A8A8A" d="M15.235.765a2.418 2.418 0 0 0-3.416 0L.977 11.608A3.313 3.313 0 0 0 0 13.965v1.368A.667.667 0 0 0 .667 16h1.368a3.312 3.312 0 0 0 2.357-.976L15.235 4.181a2.417 2.417 0 0 0 0-3.416zM3.45 14.081a2.015 2.015 0 0 1-1.414.586h-.702v-.702a1.986 1.986 0 0 1 .586-1.414l8.229-8.229 1.533 1.533-8.232 8.226zM14.292 3.238l-1.67 1.671-1.534-1.53 1.671-1.671a1.082 1.082 0 0 1 1.848.768 1.083 1.083 0 0 1-.318.765l.003-.003z"/></g><defs><clipPath id="clip0_505_25606"><path fill="#fff" d="M0 0h16v16H0z"/></clipPath></defs></svg>