<svg xmlns="http://www.w3.org/2000/svg" width="20" height="20" fill="none" viewBox="0 0 20 20"><mask id="a" fill="#fff"><path d="M9.459 11.09a3.837 3.837 0 1 0 .012-7.674 3.837 3.837 0 0 0-.012 7.675zm0-6.33a2.492 2.492 0 1 1 0 4.985 2.492 2.492 0 0 1 0-4.984z"/></mask><path fill="#EA4E1B" d="M9.459 11.09a3.837 3.837 0 1 0 .012-7.674 3.837 3.837 0 0 0-.012 7.675zm0-6.33a2.492 2.492 0 1 1 0 4.985 2.492 2.492 0 0 1 0-4.984z"/><path fill="#EA4E1B" d="M5.627 7.253h-3 3zm3.827 6.838a6.838 6.838 0 0 0 3.802-1.147L9.929 7.95a.838.838 0 0 1-.466.14l-.01 6zm3.802-1.147a6.838 6.838 0 0 0 2.523-3.067l-5.54-2.303a.838.838 0 0 1-.31.376l3.327 4.994zm2.523-3.067c.52-1.249.656-2.624.394-3.951L10.287 7.09a.838.838 0 0 1-.049.484l5.54 2.303zm.394-3.951a6.838 6.838 0 0 0-1.87-3.504L10.059 6.66a.838.838 0 0 1 .229.43l5.886-1.165zm-1.87-3.504a6.838 6.838 0 0 0-3.5-1.875L9.629 6.431a.838.838 0 0 1 .429.23l4.246-4.24zm-3.5-1.875A6.838 6.838 0 0 0 6.85.935l2.293 5.544a.838.838 0 0 1 .485-.048L10.803.547zM6.85.935a6.838 6.838 0 0 0-3.07 2.518l4.987 3.334a.838.838 0 0 1 .376-.308L6.851.935zM3.78 3.453a6.838 6.838 0 0 0-1.154 3.8h6c0-.166.05-.328.141-.466L3.78 3.453zm-1.154 3.8c0 1.812.719 3.549 1.999 4.831l4.246-4.24a.838.838 0 0 1-.245-.591h-6zm1.999 4.831a6.838 6.838 0 0 0 4.828 2.007l.01-6a.838.838 0 0 1-.592-.246l-4.246 4.24zm4.833-4.323c-.1 0-.2-.03-.283-.086l3.334-4.989a5.492 5.492 0 0 0-3.051-.925v6zm-.283-.086a.508.508 0 0 1-.187-.228l5.544-2.296a5.492 5.492 0 0 0-2.023-2.465l-3.334 4.99zm-.187-.228a.508.508 0 0 1-.029-.293l5.885 1.17a5.492 5.492 0 0 0-.312-3.173L8.989 7.447zm-.029-.293a.508.508 0 0 1 .14-.26l4.242 4.242a5.492 5.492 0 0 0 1.503-2.812L8.96 7.154zm.14-.26a.508.508 0 0 1 .26-.14l1.17 5.886a5.491 5.491 0 0 0 2.812-1.504L9.099 6.894zm.26-.14c.098-.019.2-.009.293.03l-2.296 5.543a5.493 5.493 0 0 0 3.173.313L9.36 6.755zm.293.03a.508.508 0 0 1 .228.187l-4.989 3.333a5.493 5.493 0 0 0 2.465 2.023l2.296-5.543zm.228.187a.508.508 0 0 1 .085.282h-6c0 1.086.323 2.148.926 3.051l4.989-3.333zm.085.282a.508.508 0 0 1-.148.36L5.575 3.368a5.492 5.492 0 0 0-1.609 3.884h6zm-.148.36a.508.508 0 0 1-.36.148v-6a5.492 5.492 0 0 0-3.883 1.608l4.243 4.243z" mask="url(#a)"/><mask id="b" fill="#fff"><path d="M7.733 12.05a4.667 4.667 0 0 0-3.308 1.37l.934.973a3.332 3.332 0 0 1 2.374-.985h3.452a3.334 3.334 0 0 1 2.373.985l.947-.947a4.664 4.664 0 0 0-3.32-1.377l-3.452-.019z"/></mask><path fill="#EA4E1B" d="M7.733 12.05a4.667 4.667 0 0 0-3.308 1.37l.934.973a3.332 3.332 0 0 1 2.374-.985h3.452a3.334 3.334 0 0 1 2.373.985l.947-.947a4.664 4.664 0 0 0-3.32-1.377l-3.452-.019z"/><path fill="#EA4E1B" d="M7.733 12.05l.016-3h-.013l-.003 3zm-3.308 1.37L2.3 11.303l-2.075 2.08L2.262 15.5l2.163-2.08zm.934.973l-2.162 2.08 2.128 2.212 2.163-2.178-2.129-2.114zm2.374-.985l-.008 3h.008v-3zm3.452 0v3h.008l-.008-3zm2.373.985l-2.128 2.114 2.121 2.136 2.129-2.129-2.122-2.121zm.947-.947l2.122 2.121 2.114-2.115-2.108-2.121-2.128 2.115zm-3.32-1.377l-.017 3h.024l-.007-3zM7.736 9.05a7.666 7.666 0 0 0-2.942.584l2.297 5.543c.202-.084.42-.127.639-.127l.006-6zm-2.942.584A7.666 7.666 0 0 0 2.3 11.302l4.248 4.238c.155-.156.339-.279.542-.363L4.794 9.634zM2.262 15.5l.935.972 4.325-4.159-.935-.971L2.262 15.5zm5.226 1.007a.333.333 0 0 1 .109-.073L5.298 10.89a6.334 6.334 0 0 0-2.067 1.388l4.257 4.228zm.109-.073a.333.333 0 0 1 .128-.026l.016-6a6.332 6.332 0 0 0-2.443.484l2.299 5.542zm.136-.026h3.452v-6H7.733v6zm3.46 0c.044 0 .087.009.128.026l2.298-5.543a6.333 6.333 0 0 0-2.442-.483l.016 6zm.128.026c.04.017.078.041.109.073l4.257-4.228a6.333 6.333 0 0 0-2.068-1.387l-2.298 5.542zm4.359.08l.947-.947-4.243-4.242-.947.947 4.243 4.242zm.953-5.183a7.666 7.666 0 0 0-2.501-1.677l-2.298 5.542c.203.084.388.208.543.365l4.256-4.23zm-2.501-1.677a7.666 7.666 0 0 0-2.954-.585l.014 6c.22 0 .438.043.642.127l2.298-5.542zM11.2 9.069L7.749 9.05l-.032 6 3.451.019.033-6z" mask="url(#b)"/><mask id="c" fill="#fff"><path d="M20 19.053l-3.452-3.452a9.426 9.426 0 1 0-.946.947L19.052 20l.947-.947zM1.403 9.458a8.056 8.056 0 1 1 8.055 8.05 8.061 8.061 0 0 1-8.055-8.05z"/></mask><path fill="#EA4E1B" d="M20 19.053l-3.452-3.452a9.426 9.426 0 1 0-.946.947L19.052 20l.947-.947zM1.403 9.458a8.056 8.056 0 1 1 8.055 8.05 8.061 8.061 0 0 1-8.055-8.05z"/><path fill="#EA4E1B" d="M20 19.053l2.121 2.121 2.122-2.121-2.122-2.121L20 19.053zm-3.452-3.452l-2.266-1.965-1.83 2.111 1.975 1.976 2.121-2.121zm-.946.947l2.12-2.12-1.975-1.977-2.11 1.83 1.964 2.267zM19.052 20l-2.121 2.121 2.121 2.122 2.121-2.122L19.053 20zm-9.595-2.492l-.002 3h.002v-3zm12.663-.576L18.67 13.48l-4.243 4.243 3.452 3.451 4.242-4.242zm-3.306.635a12.426 12.426 0 0 0 3.02-8.803l-5.991.32a6.427 6.427 0 0 1-1.562 4.552l4.533 3.93zm3.02-8.803a12.426 12.426 0 0 0-3.94-8.431l-4.089 4.39a6.427 6.427 0 0 1 2.038 4.36l5.991-.319zM17.895.333a12.426 12.426 0 0 0-8.69-3.331l.107 5.999a6.426 6.426 0 0 1 4.494 1.723l4.09-4.391zm-8.69-3.331A12.426 12.426 0 0 0 .64.64l4.242 4.242a6.426 6.426 0 0 1 4.43-1.881l-.107-5.999zM.64.64a12.426 12.426 0 0 0-3.638 8.565l5.999.107a6.426 6.426 0 0 1 1.881-4.43L.64.64zm-3.638 8.565a12.426 12.426 0 0 0 3.33 8.69l4.392-4.089A6.426 6.426 0 0 1 3 9.312l-5.999-.107zm3.33 8.69a12.426 12.426 0 0 0 8.432 3.94l.32-5.991a6.427 6.427 0 0 1-4.36-2.038l-4.391 4.09zm8.432 3.94c3.215.172 6.37-.911 8.803-3.02l-3.93-4.533a6.427 6.427 0 0 1-4.553 1.562l-.32 5.991zm4.716-3.165l3.452 3.451 4.242-4.242-3.451-3.452-4.243 4.243zm7.694 3.451l.947-.947-4.242-4.242-.947.947 4.242 4.242zM4.403 9.456c-.001-1 .295-1.978.85-2.81L.262 3.316a11.056 11.056 0 0 0-1.86 6.145l6-.005zm.85-2.81A5.056 5.056 0 0 1 7.52 4.782l-2.3-5.541a11.056 11.056 0 0 0-4.96 4.075l4.992 3.33zM7.52 4.782a5.056 5.056 0 0 1 2.921-.289l1.168-5.885a11.056 11.056 0 0 0-6.388.633L7.52 4.782zm2.921-.289c.981.195 1.883.676 2.59 1.383l4.241-4.244a11.056 11.056 0 0 0-5.663-3.024l-1.168 5.885zm2.59 1.383a5.056 5.056 0 0 1 1.385 2.588L20.3 7.292a11.056 11.056 0 0 0-3.028-5.66l-4.241 4.244zm1.385 2.588c.195.981.095 1.998-.287 2.922l5.543 2.295a11.056 11.056 0 0 0 .628-6.389l-5.884 1.172zm-.287 2.922a5.056 5.056 0 0 1-1.862 2.27l3.333 4.988a11.056 11.056 0 0 0 4.072-4.963l-5.543-2.295zm-1.862 2.27a5.056 5.056 0 0 1-2.81.852v6c2.187 0 4.325-.649 6.143-1.864l-3.333-4.988zm-2.807.852a5.062 5.062 0 0 1-3.574-1.481L1.646 17.27a11.062 11.062 0 0 0 7.81 3.237l.005-6zm-3.574-1.481a5.062 5.062 0 0 1-1.484-3.573l-6 .01a11.062 11.062 0 0 0 3.243 7.807l4.24-4.244z" mask="url(#c)"/></svg>