<svg xmlns="http://www.w3.org/2000/svg" width="335" height="224" fill="none" viewBox="0 0 335 224"><path fill="#EBEBEB" d="M291.392 135.885l-5.86.125-2.975.049c-.996.022-1.997 0-2.993.027h-.196v-.201l-.027-5.012v-.223h.223l5.914.027c1.974 0 3.944.049 5.914.071h.125v.125c0 .849-.036 1.693-.058 2.528l-.067 2.484zm0 0l-.063-2.524c-.022-.831-.049-1.652-.058-2.474l.121.125c-1.97.022-3.94.071-5.914.071l-5.914.027.223-.223v4.998l-.201-.197c.974 0 1.948 0 2.926.023l2.908.076 5.972.098zM284.795 142.187l-5.86.126-2.98.049c-.991 0-1.992 0-2.988.026h-.196v-5.422h.223l5.914.031c1.97 0 3.944.049 5.914.072h.125v.12c0 .849-.036 1.693-.058 2.528l-.094 2.47zm0 0l-.063-2.523c-.022-.831-.049-1.653-.058-2.475l.121.125c-1.97.023-3.944.072-5.914.072l-5.914.027.223-.224v4.998l-.201-.196c.974 0 1.948 0 2.926.022l2.935.054 5.945.12zM297.989 142.187l-5.86.126-2.975.049c-.996 0-1.997 0-2.993.026h-.196v-.201l-.027-4.998v-.223h.223l5.914.031c1.974 0 3.944.049 5.914.072h.125v.12c0 .849-.04 1.693-.058 2.528l-.067 2.47zm0 0l-.062-2.523c0-.831-.05-1.653-.059-2.475l.121.125c-1.97.023-3.94.072-5.914.072l-5.914.027.224-.224v4.998l-.201-.196c.978 0 1.947 0 2.925.022l2.939.054 5.941.12zM158.473 76.411l-5.86.125-2.975.05h-3.189v-.201l-.027-4.999v-.223h.223l5.914.027c1.974 0 3.944.049 5.914.071h.125v.12c0 .85-.04 1.69-.063 2.525l-.062 2.505zm0 0l-.063-2.528c0-.83-.049-1.652-.058-2.47l.121.12c-1.97 0-3.94.072-5.914.072l-5.914.031.224-.223-.023 4.998-.201-.2c.974 0 1.948 0 2.926.026l2.939.05 5.963.124zM151.867 82.714l-5.861.125-2.979.049c-.992 0-1.992 0-2.988.022h-.197v-.2l-.035-4.99v-.223h.223l5.914.026c1.97 0 3.944.05 5.914.072h.125v.125c0 .849-.036 1.688-.058 2.524l-.058 2.47zm0 0l-.063-2.528c-.022-.831-.049-1.653-.058-2.47l.121.12c-1.97.023-3.944.072-5.914.072l-5.914.03.223-.222-.009 4.998-.201-.201c.974 0 1.948 0 2.926.027l2.935.049 5.954.125zM165.07 82.714l-5.86.125-2.975.049c-.996 0-1.992 0-2.993.022h-.196v-.2l-.027-4.99v-.223h.223l5.914.026c1.975 0 3.944.05 5.914.072h.125v.125c0 .849-.04 1.688-.058 2.524l-.067 2.47zm0 0l-.062-2.528c0-.831-.05-1.653-.058-2.47l.12.12c-1.97.023-3.939.072-5.914.072l-5.914.03.224-.222-.023 4.998-.201-.201c.979 0 1.948 0 2.926.027l2.939.049 5.963.125zM62.033 109.482l-5.86.126-2.98.049c-.99 0-1.991 0-2.987.022h-.18v-5.423h.224l5.914.027c1.97 0 3.944.049 5.914.072h.125v.12c0 .849-.036 1.689-.058 2.524l-.112 2.483zm0 0l-.062-2.528c-.023-.83-.05-1.652-.058-2.47l.12.121c-1.97.022-3.944.071-5.914.071l-5.913.032.223-.224-.023 4.998-.2-.201c.973 0 1.947 0 2.925.027l2.935.049 5.967.125zM240.244 76.407l-5.86.125-2.975.049c-.996.022-1.996 0-2.992.022h-.197v-.2l-.027-4.999v-.223h.224l5.914.027c1.974 0 3.944.053 5.913.076h.126v.12c0 .849-.036 1.693-.059 2.524l-.067 2.479zm0 0l-.062-2.524c-.022-.835-.049-1.657-.058-2.474l.12.12c-1.969.023-3.939.072-5.913.076l-5.914.027.223-.223-.022 4.998-.201-.201c.973 0 1.947 0 2.925.027l2.939.049 5.963.125zM290.709 27.863l-5.86.125-2.98.05c-.991 0-1.992 0-2.988.026h-.196V22.642h.223l5.914.026c1.97 0 3.944.054 5.914.076h.125v.12c0 .85-.036 1.694-.058 2.525l-.094 2.474zm0 0l-.063-2.523c-.022-.836-.049-1.658-.058-2.475l.121.12c-1.97 0-3.944.072-5.914.076l-5.914.027.223-.223-.022 4.998-.201-.2c.974 0 1.948 0 2.926.026l2.934.05 5.968.124zM297.306 34.166l-5.86.125-2.975.049c-.996.022-1.997 0-2.993.022h-.196v-.2l-.027-5v-.222h.223l5.914.026c1.974 0 3.944.054 5.914.076h.125v.12c0 .85-.04 1.694-.063 2.525l-.062 2.479zm0 0l-.063-2.524c0-.835-.049-1.657-.058-2.475l.121.121c-1.97.022-3.94.071-5.914.076l-5.914.027.224-.224v4.999l-.201-.201c.973 0 1.947 0 2.925.026l2.939.05 5.941.125zM48.839 27.867l-5.865.126-2.975.049c-.991 0-1.992 0-2.988.026h-.2v-5.422h.227l5.914.031c1.97 0 3.94.05 5.914.072h.12v.12c0 .849-.04 1.693-.058 2.529l-.09 2.47zm0 0l-.067-2.523c0-.835-.05-1.657-.058-2.475l.125.12c-1.974.028-3.944.072-5.914.077l-5.914.027.223-.224-.026 4.998-.197-.174h2.921l2.94.05 5.967.125zM284.527 45.332a1.32 1.32 0 01-.188 1.367 9.516 9.516 0 00-.246.326c-.08.112-.156.228-.232.34a1.303 1.303 0 01-1.228.616l-1.693-.165-.541 5.507 1.689.165a1.34 1.34 0 011.094.845c.098.257.211.507.34.75a1.338 1.338 0 01-.09 1.376l-.987 1.375 4.498 3.225.987-1.375a1.345 1.345 0 011.273-.527c.273.04.545.067.822.08a1.303 1.303 0 011.148.764l.701 1.545 5.043-2.287-.706-1.554a1.316 1.316 0 01.188-1.34c.085-.103.17-.215.246-.322.076-.107.156-.223.232-.34a1.31 1.31 0 011.233-.616l1.693.17.545-5.512-1.689-.165a1.336 1.336 0 01-1.094-.84c-.1-.257-.213-.51-.34-.755a1.312 1.312 0 01.09-1.375l.987-1.376-4.525-3.247-.987 1.375a1.308 1.308 0 01-1.273.527 8.489 8.489 0 00-.826-.08 1.338 1.338 0 01-1.148-.764l-.697-1.545-5.043 2.273.724 1.56zm8.486 2.502a4.541 4.541 0 011.781 4.718 4.541 4.541 0 01-3.678 3.45 4.535 4.535 0 01-4.595-2.078 4.541 4.541 0 01.163-5.04 4.541 4.541 0 016.329-1.05zM42.648 86.81a.924.924 0 01-.858.446h-.571a.915.915 0 01-.854-.446l-.612-1.05-3.358 1.938.593 1.032a.916.916 0 01-.035.965c-.104.162-.2.329-.286.5a.924.924 0 01-.822.51h-1.17v3.881h1.188a.924.924 0 01.822.51c.086.17.182.338.286.5a.916.916 0 01.035.964l-.594 1.032 3.341 1.957.599-1.037a.894.894 0 01.849-.446h.571a.93.93 0 01.858.446l.594 1.032 3.359-1.938-.594-1.028a.934.934 0 01.031-.969c.106-.161.203-.328.29-.5a.924.924 0 01.822-.51h1.184v-3.881h-1.184a.925.925 0 01-.822-.51 5.034 5.034 0 00-.29-.5.933.933 0 01-.031-.969l.594-1.027-3.341-1.952-.594 1.05zm2.037 5.851a3.175 3.175 0 11-3.18-3.176 3.18 3.18 0 013.162 3.176h.018zM272.887 28.225a.924.924 0 01-.894.34l-.281-.045-.286-.032a.894.894 0 01-.786-.553l-.447-1.1-3.573 1.488.446 1.099a.917.917 0 01-.183.951c-.124.143-.24.292-.348.447a.935.935 0 01-.893.402l-1.175-.156-.487 3.859 1.175.156a.917.917 0 01.746.608c.065.182.139.361.223.536a.922.922 0 01-.089.96l-.715.947 3.082 2.354.724-.947a.92.92 0 01.893-.335l.286.045.281.026a.92.92 0 01.791.559l.446 1.103 3.574-1.492-.447-1.094a.92.92 0 01.156-.956c.126-.142.244-.291.353-.447a.924.924 0 01.894-.397l1.179.152.5-3.846-1.175-.152a.922.922 0 01-.75-.612 4.716 4.716 0 00-.223-.536.94.94 0 01.093-.965l.724-.942-3.082-2.354-.732.929zm1.264 6.07a3.177 3.177 0 11-5.899-2.01 3.177 3.177 0 015.899 2.01z"/><path fill="#EBEBEB" d="M284.419 89.472H240.74v81.235h43.679V89.472z"/><path fill="#DBDBDB" d="M286.532 87.23h-47.909v2.242h47.909V87.23z"/><path fill="#EBEBEB" d="M301.598 87.23h-15.066v2.242h15.066V87.23z"/><path fill="#DBDBDB" d="M299.213 89.472h-14.798v81.235h14.798V89.472z"/><path fill="#C7C7C7" d="M279.716 141.785h-34.277v-19.376h34.277v19.376zm-34.165-.111h34.062v-19.153h-34.062v19.153z"/><path fill="#C7C7C7" d="M264.467 128.073h-6.673v3.837h6.673v-3.837z"/><path fill="#C7C7C7" d="M266.495 131.677h-6.785v-3.372h6.785v3.372zm-6.673-.111h6.561v-3.149h-6.561v3.149zM279.716 166.12h-34.277v-19.377h34.277v19.377zm-34.165-.112h34.062v-19.153h-34.062v19.153z"/><path fill="#C7C7C7" d="M264.467 152.407h-6.673v3.837h6.673v-3.837z"/><path fill="#C7C7C7" d="M266.495 156.012h-6.785v-3.368h6.785v3.368zm-6.673-.125h6.561v-3.127h-6.561v3.127z"/><path fill="#A6A6A6" d="M279.663 98.133h-34.166v19.26h34.166v-19.26z"/><path fill="#C7C7C7" d="M276.335 93.201h-26.009v18.854h26.009V93.201z"/><path fill="#C7C7C7" d="M259.514 91.245h-9.188v1.956h9.715l-.527-1.956z"/><path fill="#A6A6A6" d="M276.263 112.051h-26.009l-2.005-17.286h26.009l2.005 17.286zM257.231 92.974h-9.188l.205 1.79h9.72l-.737-1.79z"/><path fill="#EBEBEB" d="M263.203 98.133h-34.166v19.26h34.166v-19.26z"/><path fill="#C7C7C7" d="M263.257 117.473h-34.278V98.075h34.278v19.398zm-34.166-.111h34.054V98.186h-34.054v19.176z"/><path fill="#C7C7C7" d="M248.007 103.738h-6.673v3.837h6.673v-3.837z"/><path fill="#C7C7C7" d="M250.035 107.338h-6.785v-3.367h6.785v3.367zm-6.673-.111h6.562V104.1h-6.562v3.127z"/><path fill="#DBDBDB" d="M279.658 101.018h-16.375v16.375h16.375v-16.375z"/><path fill="#EBEBEB" d="M185.708 43.955c1.671-10.06-5.13-19.57-15.191-21.241-10.06-1.67-19.57 5.13-21.241 15.19-1.671 10.06 5.13 19.57 15.191 21.241 10.06 1.671 19.57-5.13 21.241-15.19z"/><path fill="#DBDBDB" d="M180.173 54.392c7.209-6.534 7.756-17.675 1.222-24.884-6.535-7.208-17.675-7.755-24.884-1.22-7.209 6.533-7.756 17.674-1.221 24.883 6.534 7.208 17.675 7.755 24.883 1.221z"/><path fill="#fff" d="M172.262 57.395c8.855-2.164 14.279-11.096 12.116-19.95-2.164-8.855-11.096-14.28-19.95-12.116-8.855 2.164-14.279 11.096-12.116 19.95 2.164 8.855 11.096 14.28 19.95 12.116z"/><path fill="#EBEBEB" d="M184.473 37.842c-7.517 4.556-19.868 12.028-26.773 16.12a16.523 16.523 0 01-4.493-6.061l22.833-21.168a16.539 16.539 0 018.433 11.109zM184.84 41.924a16.429 16.429 0 01-1.09 5.36l-20.587 9.738a16.604 16.604 0 01-2.6-1.117c6.218-3.596 17.581-10.13 24.277-13.98z" opacity=".5"/><path fill="#C7C7C7" d="M168.505 26.04h-.317v2.502h.317v-2.501zM160.823 28.002l-.275.158 1.251 2.166.275-.158-1.251-2.166zM155.293 32.93l-.158.276 2.176 1.25.158-.275-2.176-1.251zM155.538 41.187h-2.501v.317h2.501v-.317zM157.172 47.595l-2.166 1.251.158.275 2.167-1.251-.159-.275zM161.804 52.36l-1.249 2.166.274.159 1.25-2.167-.275-.159zM168.505 54.154h-.317v2.501h.317v-2.501zM174.884 52.36l-.275.158 1.251 2.166.274-.158-1.25-2.167zM179.509 47.607l-.158.275 2.166 1.25.158-.274-2.166-1.251zM183.652 41.187h-2.502v.317h2.502v-.317zM181.517 33.541l-2.166 1.251.158.275 2.166-1.251-.158-.275zM175.872 28.019l-1.249 2.167.274.158 1.25-2.167-.275-.158z"/><path fill="#C7C7C7" d="M168.585 27.17l.545 15.29-1.568-.018.599-15.276.424.005z"/><path fill="#A6A6A6" d="M178.108 36.015l-10.286 6.566-.746-1.376 10.831-5.566.201.376z"/><path fill="#C7C7C7" d="M168.88 41.348a.535.535 0 1 1-.536-.536.53.53 0 0 1 .536.536z"/><path fill="#263238" d="M30.802 170.707l33.951-.107 33.951-.04 67.903-.076 67.902.076 33.951.04 33.951.107-33.951.112-33.951.036-67.902.075-67.903-.075-33.95-.041-33.952-.107z"/><path fill="#EBEBEB" d="M167.5 203.997c72.622 0 131.494-6.283 131.494-14.034s-58.872-14.034-131.494-14.034-131.494 6.283-131.494 14.034 58.872 14.034 131.494 14.034z"/><path fill="#F6B600" d="M51.068 124.683a18.22 18.22 0 0 1-.353 6.985c-.27 1.057-.63 2.09-1.072 3.087-.559 1.282-1.14 2.528-.996 3.926.134.089-.33.076-.344-.058-3.739-2.131-8.532-2.519-11.408-5.999-1.34-1.648-2.05-3.738-2.376-5.806-.353-2.274-.447-4.793.134-7.035.495-1.899 1.603-3.726 3.385-4.655 1.783-.929 4.248-.893 6.182-.277 4.177 1.282 6.254 5.789 6.848 9.832z"/><path fill="#263238" d="M52.983 152.349c-.509-1.697-1.018-3.399-1.54-5.096-1.028-3.319-2.095-6.629-3.274-9.903a148.398 148.398 0 0 0-2.234-5.807c.087-1.211.236-2.417.447-3.613.313-1.447.768-2.85 1.188-4.266.027-.089-.112-.134-.148-.049-.84 1.952-1.933 4.467-1.965 6.767a111.616 111.616 0 0 0-2.934-6.432 27.246 27.246 0 0 1 .165-5.36.066.066 0 0 0-.056-.064.068.068 0 0 0-.044.007.068.068 0 0 0-.03.035 18.964 18.964 0 0 0-.37 4.712 88.219 88.219 0 0 0-2.55-4.694c-.081-.143-.273 0-.202.138a135.701 135.701 0 0 1 3.93 8.263 18.056 18.056 0 0 0-5.846-3.39c-.094-.031-.165.103-.067.143a21.285 21.285 0 0 1 6.32 4.199 172.427 172.427 0 0 1 2.51 6.195c-2.336-2.296-5.538-3.801-8.633-4.61-.108-.031-.134.134-.032.161 3.573 1.081 6.365 3.127 9.09 5.552.319.84.63 1.683.933 2.528a305.134 305.134 0 0 1 3.297 9.671c.506 1.551 1 3.106 1.483 4.663.522 1.679.933 3.448 1.612 5.065.067.156.344.121.308-.067-.294-1.603-.889-3.18-1.358-4.748z"/><path fill="#263238" d="M46.784 121.408a9.262 9.262 0 00-1.34 3.355.027.027 0 00.027.027.027.027 0 00.026-.027 29.62 29.62 0 011.457-3.292c.053-.089-.108-.161-.17-.063zM40.115 129.198a9.85 9.85 0 00-3.354-1.13c-.031 0-.05.04 0 .054.54.223 1.108.38 1.653.589.545.21 1.08.447 1.634.657a.091.091 0 00.06-.012.092.092 0 00.04-.046.095.095 0 00-.033-.112zM38.24 119.827a6.554 6.554 0 00-1.082-.665.057.057 0 00-.068.022.06.06 0 00.006.072c.33.265.687.496 1.063.692.071.04.147-.076.08-.121z"/><path fill="#F6B600" d="M63.668 137.377c-2.68.799-5.4 1.536-8.09 2.327-.236.071-4.783-8.652-3.126-13.141a14.654 14.654 0 0 1 9.148-8.683c1.925-.657 4.288-1.202 6.315-.755 1.787.397 3.082 1.876 3.668 3.573.8 2.309.536 5.061.098 7.419a12.916 12.916 0 0 1-2.649 6.053c-1.442 1.702-3.265 2.586-5.364 3.207z"/><path fill="#263238" d="M67.572 129.087a36.096 36.096 0 0 1-5.28 2.081c-1.208.324-2.387.75-3.524 1.273a117.574 117.574 0 0 1 3.707-7.473c1.742-.504 3.574-1.29 4.883-2.519a.074.074 0 0 0 .026-.052.075.075 0 0 0-.017-.055.08.08 0 0 0-.052-.027.08.08 0 0 0-.056.018c-1.433 1.014-3.015 1.621-4.605 2.309.357-.661.72-1.322 1.09-1.983.103-.183-.152-.366-.272-.187a56.718 56.718 0 0 0-3.828 6.423 29.734 29.734 0 0 1-.276-5.902.048.048 0 0 0-.007-.018.04.04 0 0 0-.033-.016.039.039 0 0 0-.032.016.048.048 0 0 0-.007.018c-.001.006 0 .013.002.019a19.525 19.525 0 0 0 .067 6.468c-.947 1.885-1.787 3.819-2.577 5.771-.309-1.175-.706-2.332-.974-3.516a16.18 16.18 0 0 1-.389-5.181c0-.049-.067-.054-.076 0a18.278 18.278 0 0 0 1.13 9.514c-.446 1.175-.893 2.358-1.273 3.538a70.53 70.53 0 0 0-3.573 18.679.117.117 0 0 0 .114.094.117.117 0 0 0 .114-.094 92.848 92.848 0 0 1 4.02-18.46 74.494 74.494 0 0 1 2.68-6.861c1.59-.469 3.171-1.108 4.734-1.648a14.862 14.862 0 0 0 4.364-2.14.062.062 0 0 0 .02-.042.06.06 0 0 0-.057-.063.058.058 0 0 0-.043.016z"/><path fill="#263238" d="M70.082 126.554c-1.648.585-3.207 1.407-4.855 2.001-.076.027-.032.148.049.134 1.737-.362 3.466-.893 4.868-2.041.054-.04-.018-.112-.062-.094zM56.638 123.003c0-.089-.108-.138-.134-.049-.447 1.519-.764 3.127-.326 4.681 0 .015.006.03.017.041.01.011.025.017.04.017a.058.058 0 00.059-.058c.08-1.572-.014-3.091.344-4.632zM63.427 119.497a4.017 4.017 0 00-.715 2.581c0 .059.094.09.112.023.2-.867.536-1.662.8-2.502a.11.11 0 00-.054-.138.113.113 0 00-.078-.01.112.112 0 00-.065.046z"/><path fill="#F6B600" d="M31.646 141.223c.786 2.505 2.68 5.967 5.633 5.994 1.925 0 3.863-.21 5.806-.237 2.069-.031 4.141-.027 6.2.098.17 0-.245-6.19-5.212-9.21-1.394-.844-3.096-1.112-4.672-1.452a21.504 21.504 0 0 0-5.521-.576c-1.14.045-2.09.286-2.497 1.456-.407 1.171-.116 2.738.263 3.927z"/><path fill="#263238" d="M33.782 138.087c1.206.313 2.425.67 3.636 1.054a12.072 12.072 0 0 0-1.001-.978c-.518-.447-1.09-.777-1.648-1.157-.05-.031 0-.121.04-.098a6.852 6.852 0 0 1 2.93 2.331 67.708 67.708 0 0 1 4.467 1.617c.993.409 1.945.91 2.845 1.497a11.446 11.446 0 0 0-1.032-1.787c-.656-.853-1.55-1.34-2.412-1.934a.077.077 0 0 1-.036-.047.076.076 0 0 1 .054-.094.075.075 0 0 1 .058.007 7.068 7.068 0 0 1 3.873 4.199 16.64 16.64 0 0 1 2.818 2.559c3.288 3.734 5.874 8.701 5.883 13.766 0 .121-.192.157-.215.031-.84-4.966-3-9.616-6.253-13.462-.238-.274-.48-.538-.724-.791-.9-.12-1.807-.188-2.715-.201-1.059 0-2.108.157-3.158.242-1.733.142-3.654.16-5.217-.711-.067-.035 0-.156.053-.129 3.489 1.268 7.147-.34 10.64.415a16.355 16.355 0 0 0-5.155-3.323l-.317-.13c-2.233.268-4.6.854-6.78.126a.057.057 0 0 1-.028-.026.055.055 0 0 1-.003-.038.052.052 0 0 1 .021-.03.048.048 0 0 1 .037-.009c2.108.527 4.127-.134 6.204-.241-2.265-.894-4.57-1.582-6.839-2.457-.227-.08-.232-.268-.026-.201z"/><path fill="#263238" d="M32.794 140.293c1.08.14 2.168.222 3.257.246.026 0 .035.04 0 .045a6.738 6.738 0 01-3.288-.21c-.044-.014-.022-.089.031-.081zM40.151 138.145a5.27 5.27 0 011.613 1.121c.058.049 0 .152-.08.103a20.569 20.569 0 00-.84-.567 8.379 8.379 0 01-.787-.496.098.098 0 01.094-.161z"/><path fill="#F6B600" d="M57.691 146.207c-.035.085.08.161.125.072.01.014.02.026.035.035.014.01.03.016.046.018 2 .481 4.027.837 6.07 1.068 1.644.143 3.538.237 4.976-.719 1.947-1.291 3.23-4.744 2.175-6.937-1.246-2.604-5.003-1.193-6.887-.263a13.8 13.8 0 0 0-6.54 6.726z"/><path fill="#263238" d="M56.235 147.4a19.367 19.367 0 0 1 3.623-2.76 12.422 12.422 0 0 1 3.671-3.743c.072-.05.134.062.067.111a16.705 16.705 0 0 0-3.095 3.261 33.987 33.987 0 0 1 4.547-2.068 6.042 6.042 0 0 1 2.439-2.448s.049 0 .027.031c-.855.65-1.6 1.433-2.207 2.319a78.96 78.96 0 0 1 2.792-.979c.085-.026.116.103.035.134-1.661.648-3.358 1.34-5.002 2.122 2.006.317 4.05.317 6.057 0 .006-.002.014-.003.02-.002a.046.046 0 0 1 .033.024.043.043 0 0 1 .005.02.05.05 0 0 1-.005.021.058.058 0 0 1-.013.016.063.063 0 0 1-.02.008.05.05 0 0 1-.02-.002c-2.092.618-4.314.65-6.423.094a31.753 31.753 0 0 0-3.051 1.706 7.723 7.723 0 0 1 2.465.205c1.42.331 2.872.495 4.329.487.053 0 .071.09 0 .099-2.51.446-4.887-.711-7.375-.411a18.466 18.466 0 0 0-6.374 7.45c-1.045 2.135-1.617 4.395-2.46 6.597a.08.08 0 0 1-.04.049.081.081 0 0 1-.118-.093c.778-4.346 2.926-9.121 6.093-12.248z"/><path fill="#263238" d="M63.807 141.455c.167-.296.385-.561.643-.782a2.57 2.57 0 01.764-.554c.026 0 .04.027.026.04-.205.237-.495.407-.714.63-.22.224-.411.492-.639.71a.044.044 0 01-.028.022.043.043 0 01-.035-.004.048.048 0 01-.021-.027.045.045 0 01.004-.035zM67.952 142.804c.37-.094.763-.09 1.143-.165.375-.09.745-.201 1.108-.331a.045.045 0 01.03.003c.01.005.017.013.021.022.005.01.005.021.002.031a.04.04 0 01-.017.024 3.697 3.697 0 01-2.287.532.057.057 0 01-.041-.017.059.059 0 01-.017-.041c0-.016.006-.03.017-.041a.057.057 0 01.04-.017z"/><path fill="#37474F" d="M45.886 154.292l.33 3.743 1.117 12.641h9.899l1.398-12.641.415-3.743H45.886z"/><path fill="#263238" d="M45.886 154.292l.33 3.743H58.63l.415-3.743H45.886z"/><path fill="#37474F" d="M44.908 156.307h15.115v-3.038H44.908v3.038z"/><path fill="#AD6359" d="M297.846 184.473c-.107-.978-11.345-25.196-12.359-25.844-.384-.254-4.02 1.179-8.335 3.033l-.138.058c-.893.38-17.367 4.806-17.367 4.806l7.299 15.852 17.134-4.931.259-.129s8.451 7.347 9.639 7.941c1.188.595 3.98.21 3.868-.786z"/><path fill="#EBEBEB" d="M273.882 162.658l7.518 15.562 2.68-.782.263-.125s8.451 7.348 9.639 7.942c1.188.594 3.967.21 3.855-.764-.112-.974-11.345-25.201-12.359-25.848-.38-.255-4.02 1.174-8.339 3.032l-.13.059c-.214.102-1.416.451-3.127.924z"/><path fill="#F6B600" d="M297.926 184.616c-.107-.987-11.367-25.486-12.39-26.148-.384-.254-4.047 1.18-8.424 3.038l7.227 15.821s8.487 7.45 9.706 8.04c1.219.589 4.002.236 3.881-.751z"/><path fill="#263238" d="M296.801 184.715c-1.992-4.061-9.63-20.623-11.287-24.786 0-.036 0-.045.026 0 2.06 3.98 9.564 20.605 11.328 24.768.036.076-.027.102-.067.018zM292.442 184.205a3.61 3.61 0 01-.13-2.916 3.506 3.506 0 011.787-1.925c.026 0 .049.031.026.049a4.189 4.189 0 00-1.616 4.77c-.005.031-.054.054-.067.022zM285.483 178.725c-.782-1.635-1.077-3.806-.201-5.445.035-.063.125 0 .12.045a25.058 25.058 0 00.295 5.333.11.11 0 01-.008.085.104.104 0 01-.066.055.11.11 0 01-.085-.007.112.112 0 01-.055-.066zM286.559 179.765c-.777-1.634-1.072-3.805-.201-5.444.036-.063.125 0 .121.044-.09 1.783.009 3.571.294 5.333a.116.116 0 01-.007.086.112.112 0 01-.152.047.11.11 0 01-.055-.066zM287.653 180.806c-.782-1.635-1.076-3.805-.201-5.445.031-.062.121 0 .121.045a24.845 24.845 0 00.294 5.338.11.11 0 01-.075.138.114.114 0 01-.085-.009.11.11 0 01-.054-.067zM288.716 181.847c-.777-1.63-1.076-3.806-.201-5.445.036-.062.125 0 .121.045a25.114 25.114 0 00.294 5.36.11.11 0 01-.091.106.11.11 0 01-.123-.066zM282.097 162.765c-.845-1.844 2.023-3.158 2.867-1.308.844 1.849-2.023 3.158-2.867 1.308z"/><path fill="#263238" d="M284.263 181.275c.737-1.411.835-3.095 1.103-4.636.031-.161-.134-.255-.268-.232a.053.053 0 0 0-.008-.022.043.043 0 0 0-.018-.015c-.008-.003-.016-.004-.024-.003a.032.032 0 0 0-.021.008 9.51 9.51 0 0 0-3.516 3.426c-.478.844-.67 2.202.402 2.716 1.072.514 1.917-.415 2.35-1.242zm-1.34.706c-1.867.657-1.233-1.586-.853-2.193.249-.39.527-.762.83-1.112.617-.737 1.34-1.376 2.01-2.046-.178.75-.294 1.51-.446 2.264-.165.898-.5 2.721-1.528 3.087h-.013z"/><path fill="#263238" d="M281.297 171.02c-1.014.621-.683 1.952-.12 2.742a9.506 9.506 0 0 0 3.85 3.047.051.051 0 0 0 .021.003.054.054 0 0 0 .021-.005.057.057 0 0 0 .025-.034c.138 0 .29-.107.246-.264-.447-1.505-.702-3.167-1.582-4.498-.509-.777-1.5-1.581-2.461-.991zm2.926 3.341c.228.737.42 1.478.674 2.206-.75-.598-1.518-1.157-2.233-1.831-.335-.32-.649-.66-.942-1.018-.447-.563-1.296-2.734.625-2.269 1.081.254 1.603 2.036 1.876 2.912z"/><path fill="#37474F" d="M238.024 114.838s.304 9.496 1.724 14.168c0 0 1.555.818 2.019 1.112 0 0-11.792 28.239-11.122 39.106.219 3.573 4.257 9.416 8.331 11.953 7.209 4.467 42.433.549 42.433.549l-5.11-21.163s-22.253 1.242-22.816.036c-.714-1.528 3.717-13.4 7.259-23.057.357-.974 3.917-4.574 3.501-11.082a33.766 33.766 0 0 0-3.064-11.613l-23.155-.009z"/><path fill="#263238" d="M272.216 162.917c-4.851-.089-8.808.322-13.663.326h-5.503a5.515 5.515 0 01-1.269-.111 1.559 1.559 0 01-.973-.581c-.327-.482-.152-1.094-.041-1.613.246-1.143.523-2.278.822-3.408 1.224-4.582 2.819-9.062 4.324-13.565.771-2.32 1.545-4.636 2.323-6.95.187-.563.375-1.13.612-1.675.227-.499.482-.986.763-1.456a13.5 13.5 0 001.318-2.863c1.313-4.315.049-8.782-1.483-12.855-.21-.545-.42-1.09-.643-1.631 0-.04-.076 0-.063 0 1.398 4.297 3.069 8.773 2.126 13.36a10.867 10.867 0 01-1.121 3.087c-.268.491-.562.969-.822 1.465-.263.505-.49 1.029-.678 1.567-.822 2.278-1.55 4.597-2.323 6.893-1.532 4.564-3.127 9.12-4.427 13.77a72.71 72.71 0 00-.871 3.493c-.192.862-.625 2.041.125 2.756.554.523 1.421.59 2.14.594h3.631c4.914 0 15.093-.446 15.701-.446a.085.085 0 00.049-.08.08.08 0 00-.015-.047.09.09 0 00-.039-.03zM277.648 180.744c-.478-2.47-.933-4.958-1.478-7.415a196.469 196.469 0 00-1.787-7.361c-.183-.688-.371-1.376-.554-2.068a27.678 27.678 0 00-.272-.983 8.423 8.423 0 00-.309-1.005.036.036 0 00-.022-.009.036.036 0 00-.022.009.032.032 0 00-.009.023c.067.64.18 1.274.339 1.898.121.594.233 1.193.358 1.787.254 1.228.509 2.452.777 3.676.536 2.452 1.148 4.882 1.786 7.312.355 1.378.712 2.759 1.072 4.14a.073.073 0 00.024.033.058.058 0 00.038.011.061.061 0 00.059-.048z"/><path fill="#263238" d="M234.688 149.437l24.986-9.05c.348-.96.701-1.911 1.041-2.845.339-.933 3.917-4.574 3.506-11.082a33.671 33.671 0 0 0-3.064-11.613h-23.133s.304 9.496 1.729 14.168c0 0 1.55.822 2.014 1.112 0-.009-3.89 9.313-7.079 19.31z"/><path fill="#AD6359" d="M196.703 185.63c.942.286 27.626-.598 28.622-1.277.384-.25.478-4.15.447-8.858v-.147c0-.974-.42-17.25-.42-17.25l-18.68.562 1.876 17.063v.295s-10.063 4.913-11.077 5.766c-1.014.853-1.711 3.583-.768 3.846z"/><path fill="#EBEBEB" d="M196.703 185.635c.942.281 27.626-.603 28.622-1.282.38-.255.483-4.15.447-8.858v-.152c0-.263 0-1.585-.081-3.573l-17.509.67.362 3.292v.29s-10.064 4.914-11.082 5.771c-1.018.858-1.702 3.574-.759 3.842z"/><path fill="#F6B600" d="M196.502 185.746c.951.286 27.899-.612 28.904-1.295.384-.259.478-4.19.446-8.933l-17.375.531s-10.166 4.958-11.167 5.807c-1 .849-1.764 3.609-.808 3.89z"/><path fill="#263238" d="M196.85 184.656c4.511-.259 22.744-.893 27.247-.804.035 0 .035.027 0 .027-4.467.358-22.7.84-27.247.853-.094 0-.094-.071 0-.076zM199.008 180.833a3.604 3.604 0 012.738 1.014 3.483 3.483 0 011.09 2.376c0 .027-.049.032-.054 0a4.187 4.187 0 00-3.77-3.336.032.032 0 01-.012-.011.025.025 0 01-.005-.015.023.023 0 01.003-.016.023.023 0 01.01-.012zM206.757 176.541c1.809-.085 3.926.482 5.097 1.925.044.058-.036.12-.09.094a25.339 25.339 0 00-5.073-1.8.12.12 0 01-.057-.069.115.115 0 01-.004-.045.107.107 0 01.013-.044.12.12 0 01.069-.057.115.115 0 01.045-.004zM205.382 177.135c1.786-.09 3.921.482 5.096 1.92.045.058-.036.121-.089.094a25.11 25.11 0 00-5.034-1.787.114.114 0 01-.077-.042.118.118 0 01-.024-.085.118.118 0 01.043-.077.116.116 0 01.085-.023zM204.001 177.724c1.787-.085 3.927.483 5.097 1.925.049.054-.031.117-.09.094a24.715 24.715 0 00-5.029-1.786.117.117 0 01.022-.233zM202.626 178.314c1.787-.085 3.922.482 5.096 1.925.045.053-.035.121-.089.094a24.702 24.702 0 00-5.034-1.787.118.118 0 01-.078-.043.123.123 0 01-.025-.086.124.124 0 01.044-.079.115.115 0 01.086-.024zM222.779 179.6c2.028-.062 2.131 3.091.099 3.154-2.033.062-2.131-3.091-.099-3.154z"/><path fill="#263238" d="M204.877 174.428c1.014 1.228 2.528 1.97 3.846 2.818a.218.218 0 0 0 .1.025.231.231 0 0 0 .1-.022.238.238 0 0 0 .079-.065.21.21 0 0 0 .042-.094.04.04 0 0 0 .022-.003.042.042 0 0 0 .018-.011.049.049 0 0 0 .011-.018c.003-.007.004-.014.003-.022a9.47 9.47 0 0 0-1.787-4.569c-.594-.773-1.786-1.474-2.657-.683-.871.79-.371 1.929.223 2.644zm-.134-1.497c.112-1.969 1.939-.518 2.35.063.262.383.497.784.701 1.202a27.95 27.95 0 0 1 1.108 2.644c-.621-.447-1.273-.858-1.912-1.287-.76-.518-2.309-1.532-2.247-2.622z"/><path fill="#263238" d="M215.481 175.665c-.183-1.175-1.537-1.385-2.484-1.17a9.5 9.5 0 0 0-4.301 2.372.037.037 0 0 0-.013.017.036.036 0 0 0-.005.021.04.04 0 0 0 .005.021.052.052 0 0 0 .013.017.216.216 0 0 0-.008.199.22.22 0 0 0 .155.127c1.555.187 3.194.58 4.762.285.92-.169 2.045-.777 1.876-1.889zm-4.208 1.407c-.768-.076-1.528-.188-2.296-.232a28.637 28.637 0 0 1 2.542-1.34c.424-.186.859-.345 1.304-.474.692-.183 3.024-.138 1.849 1.456-.647.885-2.506.675-3.399.59z"/><path fill="#37474F" d="M207.043 174.423h20.895s-3.721-28.448-2.483-30.306c.545-.817 27.693 1.903 35.608-6.7 7.258-7.861-.125-22.588-.125-22.588h-22.271s-.447 6.312-1.653 8.835c-.513 1.081-25.384-.446-29.279 6.647-5.203 9.496-.692 44.112-.692 44.112z"/><path fill="#263238" d="M225.736 170.448c-2.358-.071-4.721-.161-7.084-.161-2.363 0-4.73.049-7.097.143-.666.027-2.64.121-2.957.148a7.595 7.595 0 00-.965.08.031.031 0 00-.022.009.031.031 0 00-.009.022.03.03 0 00.009.022c.006.006.014.01.022.01.513.089 5.86.147 7.035.151 2.349 0 4.699-.062 7.048-.147 1.337-.045 2.677-.095 4.02-.152.067 0 .076-.125 0-.125zM239.578 121.654c.094-.665.179-1.34.259-2.005.179-1.528.34-3.065.384-4.601 0-.121-.169-.112-.183 0-.138 1.188-.25 2.376-.384 3.573s-.237 2.377-.446 3.538c-.067.353-.215.938-.666.947-.603 0-.715-.804-.768-1.246a19.676 19.676 0 01-.058-3.328c.062-1.26.223-2.519.361-3.774 0-.045-.071-.054-.08 0-.518 2.443-1.014 5.002-.585 7.499a1.374 1.374 0 00.808 1.175h.027a.068.068 0 000 .04v.215a1.263 1.263 0 000 .174v.37c0 .024.01.047.026.064.017.016.04.026.064.026.023 0 .046-.01.063-.026a.094.094 0 00.026-.064.069.069 0 00.044-.02.076.076 0 00.023-.042 2.002 2.002 0 000-.724.879.879 0 00.42-.106.88.88 0 00.321-.291c.221-.432.339-.909.344-1.394z"/><path fill="#263238" d="M237.363 123.463a35.79 35.79 0 014.788 3.94c.063.058 0 .152-.076.102-1.635-1.264-3.31-2.501-4.868-3.85-.126-.103.022-.277.156-.192zM255.667 124.674a9.12 9.12 0 01-1.438-.112c-.423-.081-.84-.187-1.251-.317-.772-.228-1.71-.496-2.273-1.108a8.073 8.073 0 01-1.291-2.233 8.993 8.993 0 01-.759-2.653c0-.041-.067-.041-.063 0 .059.95.218 1.892.473 2.809.138.461.314.909.528 1.34a3.67 3.67 0 003.256 2.363 7.747 7.747 0 002.832 0c.062.004.044-.085-.014-.089z"/><path fill="#263238" d="M223.204 142.773a1.225 1.225 0 0 1 1.022-.974 10.066 10.066 0 0 1 1.787-.036c1.394 0 2.787.031 4.181.031 5.48 0 11.01-.143 16.406-1.224a38.301 38.301 0 0 0 7.669-2.313c2.095-.894 4.185-2.149 5.49-4.074 1.5-2.233 1.621-5.114 1.567-7.709a29.39 29.39 0 0 0-1.34-8.25 23.431 23.431 0 0 0-.719-2.006c0-.04.045-.076.063-.036a28.546 28.546 0 0 1 2.175 7.964 27.34 27.34 0 0 1 .183 4.065c0 1.333-.173 2.66-.513 3.949-1.421 4.85-6.857 6.856-11.256 8.089-5.289 1.483-10.81 1.894-16.281 1.974-2.752.045-5.503 0-8.255-.036-.522 0-1.389-.156-1.702.398a3.032 3.032 0 0 0-.245 1c-.063.385-.103.778-.134 1.166a33.338 33.338 0 0 0 .058 4.391c.179 2.978.384 5.945.616 8.902.237 2.979.572 5.959.786 8.933.054.733.125 1.461.197 2.193 0 .081-.139.099-.147 0a277.604 277.604 0 0 1-1.698-17.746c-.098-1.465-.205-2.93-.245-4.399a15.732 15.732 0 0 1 .335-4.252z"/><path fill="#263238" d="M236.586 143.862a45.143 45.143 0 0 0 5.547-.406c1.733-.214 3.462-.447 5.186-.746 2.993-.509 6.057-1.072 8.884-2.233a15.444 15.444 0 0 0 4.296-2.491c.004-.002.009-.003.014-.002.005 0 .009.001.014.003a.044.044 0 0 1 .011.008l.008.013a.059.059 0 0 1 .002.014.033.033 0 0 1-.004.013.025.025 0 0 1-.008.012c-2.14 2.077-4.855 3.296-7.705 4.073a62.383 62.383 0 0 1-9.978 1.751 54.323 54.323 0 0 1-6.276.183.104.104 0 0 1-.055-.098.106.106 0 0 1 .064-.094z"/><path fill="#AD6359" d="M243.5 88.757c-2.881 6.588-12.703 16.505-15.986 17.541-4.042 1.277-13.655-4.976-17.478-8.79-1.577-1.573 4.02-9.318 6.664-9.157 1.456.089 9.38 7.008 10.568 6.414 2.864-1.438 6.785-4.243 12.4-8.04 3.055-2.06 5.628-2.068 3.832 2.032z"/><path fill="#AD6359" d="M220.024 90.584s-1.863-2.845-2.957-3.913c-1.095-1.067-6.642-3.546-7.245-2.38-.778 1.505 2.139 3.573 3.703 4.39 0 0-1.809 3.484-.032 5.418 1.778 1.934 6.531-3.515 6.531-3.515z"/><path fill="#AD6359" d="M211.233 98.521c-1.175-.567-6.325-3.636-7.567-4.81-1.241-1.175-4.573-4.82-3.769-5.86.804-1.041 1.862-.059 1.862-.059s-1.161-1.76-.259-2.733c.902-.974 2.506.612 2.506.612s-1.063-1.894-.094-2.8c.969-.908 2.314.96 2.314.96s-1.054-1.689.062-2.1c1.34-.496 2.931 2.832 4.4 4.02.335.268 7.147 5.016 7.147 5.016l-6.602 7.754z"/><path fill="#263238" d="M206.105 83.67c1.175 2.447 2.113 3.314 4.377 4.734.041.027 0 .099-.04.076-2.34-1.188-3.671-2.108-4.466-4.757-.027-.13.075-.17.129-.053zM203.912 85.479c1.443 2.43 2.452 3.38 4.713 5.043.031.022 0 .08-.041.058-2.354-1.443-3.662-2.39-4.779-5.012-.054-.116.045-.201.107-.09zM201.893 87.873c1.568 2.255 2.627 3.345 5.03 4.676a.057.057 0 01.018.03.052.052 0 01-.004.035.056.056 0 01-.024.024.055.055 0 01-.035.005c-2.582-1.121-3.913-2.47-5.047-4.712-.094-.156-.054-.197.062-.058zM209.746 84.773c.277 1.89 2.398 2.836 3.854 3.747.022.014.04.032.054.053a.157.157 0 01.012.145.155.155 0 01-.043.061c-.661 1.51-1.148 3.833-.237 5.316a.04.04 0 01.007.014l.001.017a.043.043 0 01-.006.015.037.037 0 01-.011.012.035.035 0 01-.015.007.04.04 0 01-.031-.005.035.035 0 01-.012-.011c-1.193-1.46-.893-3.779-.067-5.391-1.51-.894-3.573-1.957-3.524-3.976 0-.013.013-.013.018-.004z"/><path fill="#F6B600" d="M232.137 91.004l4.82 9.308s6.61-9.447 7.767-12.774c1.305-3.743-.893-3.574-4.301-1.979-3.408 1.595-8.286 5.445-8.286 5.445z"/><path fill="#263238" d="M233.991 90.459c.772 1.103 2.63 4.735 2.943 5.333.165.317.768 1.604.934 1.916.022.04-.045.063-.067.023-.318-.594-.702-1.162-1.023-1.756-.322-.594-2.345-4.225-2.837-5.49 0-.005.002-.01.004-.016a.035.035 0 0 1 .013-.012.03.03 0 0 1 .016-.004c.006 0 .012.003.017.006z"/><path fill="#000" d="M244.724 87.547c-1.157 3.327-7.767 12.774-7.767 12.774l-2.484-4.797 9.331-11.037c1.228-.031 1.697.826.92 3.06z" opacity=".1"/><path fill="#F6B600" d="M264.386 118.17l-28.01 3.895c.076.55-1.483-22.159 3.953-36.399.37-.969 4.636-2.55 6.825-1.031 9.594 6.66 17.272 33.893 17.232 33.535z"/><path fill="#000" d="M246.922 84.492l-6.383.893a5.17 5.17 0 0 1 1.979-1.005l2.568-.353c.64.01 1.268.17 1.836.465zm1.617 1.255l-8.679 1.197c-.089.25-.174.509-.255.768l9.595-1.34a14.498 14.498 0 0 0-.661-.612v-.013zm1.858 1.952l-11.247 1.554c-.072.25-.143.505-.21.76l11.997-1.653a19.665 19.665 0 0 0-.54-.661zm1.545 2l-13.4 1.845-.174.76 14.025-1.934a12.49 12.49 0 0 0-.451-.67zm1.34 2.02l-15.209 2.103c-.053.25-.102.5-.147.75l15.781-2.175-.425-.678zm1.211 2.045l-16.866 2.327c-.045.25-.085.5-.121.75l17.353-2.393a8.891 8.891 0 0 0-.362-.684h-.004zm1.116 2.06l-18.313 2.523c-.04.25-.071.496-.103.746l18.76-2.586c-.107-.232-.22-.46-.339-.684h-.005zm1.041 2.063l-19.653 2.711c-.031.25-.063.501-.085.746l20.055-2.77c-.093-.231-.205-.46-.312-.687h-.005zm.978 2.077l-20.854 2.877c-.027.25-.05.5-.067.746l21.23-2.931-.309-.692zm.916 2.082l-21.958 3.028-.054.741 22.311-3.082c-.093-.227-.192-.446-.294-.687h-.005zm.893 2.09l-22.985 3.171c0 .25-.013.496-.04.737l23.307-3.211-.282-.697zm.836 2.095l-23.924 3.301c0 .25 0 .495-.031.737l24.227-3.346c-.098-.228-.192-.46-.281-.692h.009zm.799 2.099l-24.785 3.422v.737l25.071-3.462-.286-.697zm.768 2.104l-25.598 3.529v.737l25.853-3.574c-.098-.223-.179-.455-.263-.692h.008zm.737 2.108l-26.353 3.636v.733l26.572-3.668-.219-.701zm.706 2.117l-27.028 3.708v.732l27.247-3.756-.219-.684zm.675 2.113l-27.64 3.828c0 .281 0 .527.031.733l27.819-3.842a13.537 13.537 0 0 0-.219-.719h.009z" opacity=".1"/><path fill="#AD6359" d="M241.776 89.333c1.38.13 3.94-1.826 4.628-3.868.044-.138-.389-1.447-.84-3.06-.273-.982-.55-2.076-.733-3.1-.035-.21-6.123 2.68-6.123 2.68a16.704 16.704 0 0 1 1.34 3.81c.021.141.031.283.031.425v.072c-.009.808.228 2.894 1.697 3.041z"/><path fill="#263238" d="M240.052 86.207v.071a4.81 4.81 0 0 0 .661-.08c3.752-.755 3.904-5.646 3.882-6.874-1.108.361-5.896 2.648-5.896 2.648a16.399 16.399 0 0 1 1.34 3.81c.019.141.024.283.013.425z"/><path fill="#AD6359" d="M244.603 71.14c1.028 2.18.782 8.934-.625 10.65-2.041 2.474-5.86 3.237-8.085.674-2.153-2.488-1.675-11.296-.058-12.896 2.385-2.353 7.25-1.643 8.768 1.573z"/><path fill="#263238" d="M238.752 76.023s.036.022.032.04c-.027.447-.001.983.424 1.143v.027c-.505-.085-.558-.786-.456-1.21z"/><path fill="#263238" d="M239.172 75.558c.737-.031.746 1.438.067 1.47-.679.03-.684-1.443-.067-1.47zM236.112 76.117s-.035.022-.035.04c0 .446-.036.978-.447 1.134v.027c.505-.076.572-.773.482-1.201z"/><path fill="#263238" d="M235.701 75.643c-.732-.05-.777 1.42-.098 1.465.679.045.715-1.425.098-1.465zM239.748 74.88a4.588 4.588 0 01-.571-.197.98.98 0 01-.545-.309.315.315 0 01.049-.38.772.772 0 01.777-.084c.272.074.506.248.657.487a.334.334 0 01-.178.472.333.333 0 01-.189.01zM235.13 74.906c.201-.036.384-.103.58-.156a.998.998 0 00.568-.273.31.31 0 00-.023-.38.773.773 0 00-.768-.138 1.109 1.109 0 00-.688.447.331.331 0 00.331.5z"/><path fill="#263238" d="M238.716 78.89a1.539 1.539 0 0 1-1.031.697 2.12 2.12 0 0 1-.559.031H236.921a.114.114 0 0 1-.063-.036.119.119 0 0 1-.031-.066.167.167 0 0 1 0-.045v-.04-.894c-.13.067-.777.367-.768.179.027-1.581.215-3.156.562-4.699 0-.049.09-.04.085 0 0 1.465-.294 2.912-.335 4.382.233-.109.48-.185.733-.228.049 0-.076 1.032-.058 1.188a2.14 2.14 0 0 0 1.603-.513c.058-.023.094.004.067.044z"/><path fill="#263238" d="M237.332 79.435c.193.25.449.446.741.567a.84.84 0 0 0 .505.027c.362-.098.37-.446.299-.719a1.874 1.874 0 0 0-.165-.447 2.382 2.382 0 0 1-1.38.572z"/><path fill="#FF99BA" d="M238.073 80.002a.84.84 0 0 0 .505.027c.362-.098.371-.446.299-.719a.863.863 0 0 0-.804.692z"/><path fill="#263238" d="M234.884 71.81c.241-.58.527-1.165.893-1.281.366-.116.581.728 1.376.777 1.067.062 1.577-.925 3.073-1.045 2.144-.17 3.127 1.617 3.185 4.663.071 2.725 1.719 2.966 1.719 2.966s.943-6.012-.768-7.987c-1.711-1.974-5.597-2.814-8.187-.893-.965.701-1.291 2.8-1.291 2.8z"/><path fill="#AD6359" d="M243.728 76.827s1.228-2.328 2.265-1.912c1.036.415.299 3.645-.787 4.212a1.16 1.16 0 0 1-1.625-.447l.147-1.853z"/><path fill="#263238" d="M245.76 75.84v.03c-.759.425-1.085 1.216-1.282 2.02a.652.652 0 0 1 .399-.363.644.644 0 0 1 .535.068v.045a.718.718 0 0 0-.751.348 3.43 3.43 0 0 0-.299.679c-.027.076-.161.054-.143-.031-.152-1.032.46-2.555 1.541-2.796z"/><path fill="#F6B600" d="M237.917 67.983a9.647 9.647 0 0 1 2.626-.979c1.028-.196 4.315-.156 5.146.447.831.603 1.237 3.672 1.286 4.123.05.451.027 3.19-.893 3.913-.92.723-1.34-3.904-3.002-5.338-1.661-1.434-5.163-2.166-5.163-2.166z"/><path fill="#000" d="M237.917 67.983s3.48.732 5.141 2.166c1.662 1.434 2.055 6.057 3.002 5.338.415-.317.598-.764.732-1.501-.299-1.34-.982-3.404-2.206-4.784-1.144-1.29-3.006-1.862-4.967-1.952-.587.196-1.156.441-1.702.733z" opacity=".1"/><path fill="#F6B600" d="M245.97 78.252c-.169-1.229-1.639-4.467-3.082-6.254-1.442-1.786-5.36-2.68-5.923-2.59-1.308.16-1.554.808-1.786.705-.232-.102 1-1.684 1.34-1.93a4.323 4.323 0 0 1 1.786-.576c.572 0 4.119.099 5.495 1.515 1.375 1.416 3.466 5.507 3.202 6.606-.062.264-.393.447-.478.826-.116.492-.179 1.054-.304 1.398-.125.344-.236.407-.25.3z"/><path fill="#263238" d="M242.54 71.163c.289-.204.561-.431.813-.679.256-.25.484-.526.679-.826h.035c-.16.338-.374.647-.634.915a2.844 2.844 0 01-.893.635c0 .035-.04-.018 0-.045zM245.899 77.019c.031-.09.085-.174.12-.264.043-.1.074-.205.094-.312.012-.206.046-.41.103-.608.069-.159.158-.309.263-.447a.83.83 0 00.21-.518c0-.026.036-.03.041 0-.033.352-.155.69-.353.983-.06.214-.101.432-.125.652a.983.983 0 01-.295.536s-.067.009-.058-.022zM245.39 75.714c.107-.151.223-.285.317-.446.088-.155.167-.314.237-.478.067-.165.12-.33.183-.492.062-.16.178-.38.241-.576 0-.022.049 0 .04 0-.071.206-.103.42-.165.626-.057.176-.124.35-.201.518a3.218 3.218 0 01-.264.447c-.098.149-.225.277-.375.375 0 0-.022.035-.013.026zM244.858 74.535a3.62 3.62 0 00.626-.8c.16-.29.303-.593.446-.893h.036c-.081.336-.202.66-.362.965a2.218 2.218 0 01-.29.411 2.353 2.353 0 01-.447.335s-.027 0-.009-.018zM241.539 70.524c.112-.156.219-.312.344-.446.125-.134.268-.29.416-.447.271-.267.57-.504.893-.706 0 0 .045 0 .027.031-.554.536-1.126 1.055-1.671 1.595.005.022-.027-.004-.009-.027zM240.722 69.52c.114-.157.246-.3.393-.425a5.426 5.426 0 011.018-.657s.045 0 0 .031c-.303.233-.616.447-.893.715a4.88 4.88 0 00-.416.389c-.134.138-.227.303-.352.446h-.027a1.4 1.4 0 01.277-.5zM239.663 69.104c.105-.161.226-.311.362-.447.255-.243.547-.442.867-.59.022 0 .035.027 0 .036a6.452 6.452 0 00-.809.675c-.125.125-.245.254-.366.384s-.219.286-.348.397h-.023c.091-.161.198-.314.317-.455zM238.882 68.537c.12-.117.25-.224.379-.331.123-.11.262-.2.411-.268v.036c-.241.219-.478.446-.71.665-.202.22-.382.46-.536.715h-.022c.072-.315.238-.6.478-.817zM237.944 68.398c.223-.238.489-.43.786-.567 0 0 .04 0 0 .035a3.123 3.123 0 00-.715.612c-.209.237-.39.496-.54.773h-.027a2.04 2.04 0 01.496-.853zM236.765 69.028c.026-.066.058-.13.093-.192.072-.127.158-.245.255-.353a4.11 4.11 0 01.661-.585s.045 0 .027.031a3.551 3.551 0 00-.621.599c-.089.108-.17.223-.241.344-.036.058-.067.12-.099.183a1.399 1.399 0 01-.093.183h-.036a.638.638 0 01.054-.21zM236.028 69.144a2.787 2.787 0 01.446-.554c.09-.085.179-.165.264-.255.085-.089.049 0 .027.027-.087.087-.167.18-.242.277l-.214.273-.214.277a3.347 3.347 0 01-.215.281h-.027c.047-.114.105-.224.175-.326z"/><path fill="#AD6359" d="M250.875 89.878c2.787 6.213 8.96 18.939 7.374 23.727-2.081 6.285-12.953 13.217-15.794 15.16-1.228.844-7.334-6.986-6.959-8.536.375-1.55 11.31-10.063 11.926-11.086.616-1.023-1.277-11.94-1.715-17.701-.558-7.272 2.809-6.821 5.168-1.564z"/><path fill="#AD6359" d="M232.673 124.424c.331-.684-.027-.863-1.242-.268-1.215.594-5.525 3.961-6.575 2.358-1.049-1.604 5.101-6.276 7.201-7.102 2.099-.826 5.806-1.438 5.806-1.438-1.031 1.152-3.229 4.172-5.19 6.45z"/><path fill="#AD6359" d="M245.434 126.331c-2.974 3.126-6.49 7.209-11.166 8.553a2.395 2.395 0 0 1-1.581-.049c-2.091.639-3.02-.156-3.02-.156-2.131 0-2.966-.943-2.966-.943s-2.461.72-3.126-.696c-.769-1.582 2.84-2.287 4.587-3.891 4.02-3.667 8.665-10.001 9.715-11.166l7.557 8.348z"/><path fill="#263238" d="M235.027 128.256a34.55 34.55 0 01-3.689 3.01 34.631 34.631 0 01-4.623 2.412.046.046 0 00-.016.05.045.045 0 00.016.022.043.043 0 00.026.009 18.453 18.453 0 008.335-5.45c.049-.058.009-.116-.049-.053zM237.591 130.351c-1.224.96-3.386 2.64-7.951 4.279v.031a16.531 16.531 0 007.987-4.234c.08-.085.044-.143-.036-.076zM238.967 131.503c-2.144 1.555-3.694 2.265-6.254 3.319v.027c3.051-.894 4.056-1.555 6.321-3.283.058-.058 0-.125-.067-.063z"/><path fill="#F6B600" d="M245.997 99.406l10.39.5s-4.815-10.38-7.093-13.034c-2.56-2.984-3.529-1.023-3.846 2.707-.317 3.73.549 9.827.549 9.827z"/><path fill="#263238" d="M246.453 97.543c1.34-.116 5.36.103 6.043.13.353 0 1.76.138 2.108.151.045 0 .036.072 0 .072-.67-.027-1.34.022-2.019 0s-4.792-.09-6.123-.3c-.036-.004-.036-.053-.009-.053z"/><path fill="#263238" d="M251.741 90.772a.034.034 0 01-.003-.014c0-.005 0-.01.002-.015a.034.034 0 01.008-.012.035.035 0 01.039-.01.04.04 0 01.013.008 70.754 70.754 0 011.473 2.535 8.266 8.266 0 00-.545-1.425s.023-.031.032 0c.28.52.49 1.074.625 1.648.331.594.652 1.189.965 1.787.804 1.523 1.626 3.046 2.336 4.618.008.02.01.04.008.06a.131.131 0 01-.023.057.13.13 0 01-.046.038.124.124 0 01-.06.011 14.543 14.543 0 01-1.076-.12c-.036 0-.04-.068 0-.068a11.9 11.9 0 01.893-.035c-.813-1.457-1.55-2.953-2.323-4.431a132.83 132.83 0 01-2.318-4.632zM245.363 94.984a48.842 48.842 0 01-.317-1.617c.098.393.187.786.272 1.183a40.713 40.713 0 01-.067-2.416c.166 1.21.268 2.425.407 3.64.138 1.215.254 2.381.366 3.574.237.049.469.093.706.134.005-.002.011-.003.017-.002a.04.04 0 01.016.006.05.05 0 01.011.013c.003.005.004.01.004.016a.032.032 0 01-.004.017.05.05 0 01-.011.012.04.04 0 01-.016.007c-.006 0-.012 0-.017-.002h-.786a.116.116 0 01-.134-.099 76.997 76.997 0 01-.447-4.466zM213.122 73.615a7.777 7.777 0 01-.218-1.97 7.6 7.6 0 01.223-1.97 8.707 8.707 0 010 3.94h-.005zM209.111 74.772a8.84 8.84 0 01-1.965-3.413 7.658 7.658 0 011.175 1.595c.34.57.605 1.18.79 1.818zM206.213 77.778a7.957 7.957 0 01-1.814-.795 7.798 7.798 0 01-1.594-1.18 7.605 7.605 0 011.818.796 7.78 7.78 0 011.59 1.18zM205.208 81.83a8.01 8.01 0 01-1.97.223 7.777 7.777 0 01-1.966-.228 7.8 7.8 0 011.97-.219 7.955 7.955 0 011.966.223zM206.36 85.84a7.645 7.645 0 01-1.595 1.18 7.776 7.776 0 01-1.818.786 8.051 8.051 0 011.595-1.175 7.972 7.972 0 011.818-.79zM209.371 88.74a7.75 7.75 0 01-.791 1.813 7.666 7.666 0 01-1.179 1.594 7.822 7.822 0 01.79-1.818 7.966 7.966 0 011.18-1.59zM213.426 89.744c.157.645.23 1.307.219 1.97a7.6 7.6 0 01-.223 1.97 8.707 8.707 0 010-3.94h.004zM217.438 88.587a8.06 8.06 0 011.174 1.595c.341.574.607 1.19.791 1.831a7.463 7.463 0 01-1.175-1.594 7.744 7.744 0 01-.79-1.832zM220.332 85.581a7.76 7.76 0 011.817.79 7.94 7.94 0 011.595 1.185 8.853 8.853 0 01-3.412-1.975zM221.337 81.53c1.296-.3 2.643-.3 3.939 0a7.788 7.788 0 01-1.969.219 8.017 8.017 0 01-1.97-.219zM220.207 77.514a8.83 8.83 0 013.412-1.965 8.69 8.69 0 01-3.412 1.965zM217.174 74.62c.19-.635.459-1.244.799-1.813a7.755 7.755 0 011.18-1.59 7.568 7.568 0 01-.796 1.813 7.803 7.803 0 01-1.183 1.59z"/><path fill="#F6B600" d="M216.178 109.978H105.583v80.168h110.595v-80.168z"/><path fill="#F6B600" d="M144.657 101.679h-39.074v8.299h41.321l-2.247-8.299z"/><g fill="#000" opacity=".1"><path d="M216.178 109.978H105.583v80.168h110.595v-80.168z" opacity=".1"/><path d="M144.657 101.679h-39.074v8.299h41.321l-2.247-8.299z" opacity=".1"/></g><path fill="#EBEBEB" d="M194.55 155.252a14619.47 14619.47 0 0 1-63.489-18.335c5.231-24.429 19.877-48.361 20.859-73.16a5511.387 5511.387 0 0 1 63.427 17.5c-5.271 24.826-19.899 49-20.797 73.995z"/><path fill="#DBDBDB" d="M194.55 155.252a15063.64 15063.64 0 0 1-63.511-18.219l-.125-.036.022-.116c5.213-24.437 19.836-48.374 20.774-73.182v-.188l.21.058a5832.247 5832.247 0 0 1 63.472 17.555l.143.04-.032.134c-5.337 24.812-20.006 48.972-20.953 73.954zm0 0c.849-25.013 15.441-49.196 20.672-74.035.04.054.076.112.116.17a6094.957 6094.957 0 0 0-63.427-17.442l.219-.13c-1.027 24.79-15.696 48.718-20.939 73.142l-.103-.152c20.779 6.084 41.87 12.23 63.462 18.447z"/><path fill="#455A64" d="M191.133 109.88c-3.211 8.571-12.953 13.351-22.016 10.666-9.063-2.684-13.847-11.738-10.72-20.265 3.127-8.527 12.507-13.4 21.681-10.747 9.175 2.653 14.302 11.743 11.055 20.346z"/><path fill="#DBDBDB" d="M174.78 105.047c-3.72 4.252-7.486 8.487-11.166 12.734a15.15 15.15 0 0 1-5.204-17.522c3.082-8.487 12.551-13.36 21.681-10.747 9.13 2.613 14.267 11.819 11.037 20.346a9123.47 9123.47 0 0 0-16.348-4.811z"/><path fill="#DBDBDB" d="M174.781 105.047c3.247 4.364 6.458 8.728 9.737 13.105a18.39 18.39 0 0 1-15.401 2.372c-9.067-2.658-13.815-11.792-10.72-20.265 3.095-8.474 12.551-13.36 21.681-10.747 9.13 2.613 14.267 11.819 11.037 20.346a7508.786 7508.786 0 0 0-16.334-4.811z"/><path fill="#F6B600" d="M174.781 105.047l-17.152 2.859a15.526 15.526 0 0 1 .786-7.647c3.082-8.487 12.551-13.36 21.681-10.747 9.13 2.613 14.267 11.819 11.037 20.346-5.449-1.608-10.9-3.212-16.352-4.811z"/><path fill="#DBDBDB" d="M156.811 74.513a6332.377 6332.377 0 0126.108 7.316c-.152.63-.308 1.264-.447 1.899a7012.534 7012.534 0 00-25.996-7.317c.103-.634.219-1.264.335-1.898zM154.837 123.36c11.548 3.404 23.161 6.828 34.84 10.274-.174.629-.344 1.264-.509 1.894-11.724-3.44-23.37-6.864-34.939-10.274.197-.637.4-1.268.608-1.894zM153.327 128.099c11.613 3.416 23.318 6.851 35.113 10.305-.152.634-.295 1.269-.447 1.898a24082.69 24082.69 0 01-35.233-10.322c.192-.63.375-1.255.567-1.881zM151.974 132.843a20004.03 20004.03 0 0035.452 10.358 86.254 86.254 0 00-.331 1.907 18635.907 18635.907 0 01-35.608-10.38c.156-.63.321-1.26.487-1.885z"/><path fill="#F6B600" d="M148.007 123.414l-4.18-1.237c.21-.626.424-1.246.638-1.872l4.195 1.233c-.23.625-.447 1.251-.653 1.876z"/><path fill="#455A64" d="M146.506 128.144l-4.23-1.242c.192-.625.389-1.25.59-1.871l4.217 1.237c-.193.625-.38 1.251-.577 1.876z"/><path fill="#DBDBDB" d="M145.167 132.883l-4.266-1.246c.17-.625.344-1.251.522-1.876l4.248 1.242c-.161.625-.33 1.255-.504 1.88z"/><path fill="#F6B600" d="M214.538 99.32c-.22 28.531-.488 56.742-.804 84.635-34.992 2.059-72.235-9.786-106.512-3.323.215-28.527.483-56.74.804-84.639 34.992-2.055 72.231 9.791 106.512 3.328z"/><path fill="#fff" d="M214.538 99.32c-.22 28.531-.488 56.742-.804 84.635-34.992 2.059-72.235-9.786-106.512-3.323.215-28.527.483-56.74.804-84.639 34.992-2.055 72.231 9.791 106.512 3.328z" opacity=".8"/><path fill="#DBDBDB" d="M122.712 171.113c.182-15.484.377-30.89.586-46.216.893 0 1.803.018 2.729.053-.209 15.3-.41 30.66-.603 46.079-.906.029-1.809.058-2.712.084zM129.564 170.997c.203-15.359.414-30.657.635-45.895.915.04 1.827.09 2.742.143-.223 15.211-.44 30.472-.652 45.784-.907-.018-1.818-.032-2.725-.032zM136.457 171.158c.22-15.264.443-30.479.67-45.645l2.755.215c-.235 15.148-.466 30.334-.692 45.56-.905-.048-1.816-.091-2.733-.13zM143.38 171.542c.339-22.238.689-44.409 1.05-66.513l2.764.282c-.36 22.101-.713 44.246-1.058 66.437-.911-.072-1.827-.143-2.756-.206zM150.348 172.105c.351-22.161.71-44.275 1.076-66.343l2.769.303-1.08 66.295c-.921-.09-1.845-.174-2.765-.255zM157.329 172.784c.357-22.107.719-44.193 1.085-66.258l2.774.299c-.366 22.092-.731 44.175-1.094 66.249l-2.765-.29zM164.315 173.53c.366-22.077.73-44.165 1.09-66.263l2.765.277c-.355 22.128-.715 44.224-1.081 66.29l-2.774-.304zM171.31 174.294c.363-22.084.721-44.202 1.072-66.357.92.08 1.84.156 2.76.228-.348 22.199-.702 44.34-1.063 66.423-.924-.093-1.844-.192-2.769-.294zM178.296 175.022c.357-22.122.704-44.307 1.041-66.553.915.062 1.835.116 2.747.165-.325 22.3-.666 44.516-1.023 66.647l-2.765-.259zM185.268 175.656c.345-22.19.678-44.466.996-66.826.911.036 1.823.063 2.734.081-.298 22.431-.623 44.753-.974 66.964l-2.756-.219zM192.214 176.152c.33-22.289.643-44.686.938-67.192.893 0 1.798-.009 2.716-.027-.277 22.589-.575 45.043-.894 67.362-.923-.039-1.843-.087-2.76-.143zM199.133 176.433c.298-22.414.585-44.964.862-67.652a141.55 141.55 0 002.68-.156c-.25 22.78-.527 45.399-.831 67.857a63.47 63.47 0 01-2.711-.049z"/><path fill="#EBEBEB" d="M212.305 102.032H108.786v80.646h103.519v-80.646z"/><path fill="#DBDBDB" d="M212.31 102.032l.138 80.655v.143h-.138l-103.524.076h-.219v-.219l.053-80.642v-.169h.166l103.524.156zm0 0l-103.524.165.169-.165.032 80.655-.219-.219 103.524.08-.125.139.143-80.655z"/><path fill="#C7C7C7" d="M130.909 173.852l-.076-31.499.076-31.499.08 31.499-.08 31.499zM133.482 173.852l-.081-31.499.081-31.499.076 31.499-.076 31.499zM136.05 173.852l-.08-31.499.08-31.499.081 31.499-.081 31.499zM138.618 173.852l-.08-31.499.08-31.499.081 31.499-.081 31.499zM141.187 173.852l-.081-31.499.081-31.499.08 31.499-.08 31.499zM143.755 173.852l-.076-31.499.076-31.499.081 31.499-.081 31.499zM146.328 173.852l-.08-31.499.08-31.499.076 31.499-.076 31.499zM148.896 173.852l-.08-31.499.08-31.499.076 31.499-.076 31.499zM151.465 173.852l-.081-31.499.081-31.499.08 31.499-.08 31.499zM154.033 173.852l-.08-31.499.08-31.499.08 31.499-.08 31.499zM156.601 173.852l-.08-31.499.08-31.499.081 31.499-.081 31.499zM159.17 173.852l-.076-31.499.076-31.499.08 31.499-.08 31.499zM161.743 173.852l-.081-31.499.081-31.499.075 31.499-.075 31.499zM164.311 173.852l-.081-31.499.081-31.499.08 31.499-.08 31.499zM166.879 173.852l-.08-31.499.08-31.499.081 31.499-.081 31.499z"/><path fill="#F6B600" d="M159.089 162.408v4.779h10.783v-4.779h-10.783zM153.34 153.546v4.779h16.531v-4.779H153.34zM146.899 144.689v4.779h22.972v-4.779h-22.972zM144.135 135.822v4.78h25.737v-4.78h-25.737zM139.212 126.96v4.78h30.664v-4.78h-30.664zM134.339 118.099v4.779h35.533v-4.779h-35.533z"/><path fill="#C7C7C7" d="M129.109 172.145l10.188-.125 10.193-.085c6.794-.058 13.588-.076 20.382-.089l-.295.299V156.82l.036-15.321.098-15.325.174-15.32.179 15.32.094 15.325.035 15.321v15.62h-.295c-6.793 0-13.587-.031-20.381-.089l-10.193-.085-10.215-.121zM172.029 162.412v4.78h.434v-4.78h-.434zM172.024 153.55v4.78h.434v-4.78h-.434zM172.024 144.689v4.779h.434v-4.779h-.434zM172.024 135.822v4.78h.434v-4.78h-.434zM172.029 126.96v4.78h.434v-4.78h-.434zM172.029 118.099v4.779h.434v-4.779h-.434z"/><path fill="#263238" d="M160.451 166.651a57.582 57.582 0 0 0-.545-6.977 66.203 66.203 0 0 0-1.237-6.874 59.426 59.426 0 0 0-4.623-13.127 46.788 46.788 0 0 0-7.794-11.48l-.585-.643-.621-.612-1.246-1.219c-.894-.751-1.729-1.559-2.68-2.234a47.474 47.474 0 0 0-5.807-3.908l.022-.04a41.975 41.975 0 0 1 15.741 13.762 46.571 46.571 0 0 1 3.573 6.079 56.852 56.852 0 0 1 4.52 13.315 57.524 57.524 0 0 1 1.282 13.958z"/><path fill="#263238" d="M138.663 118.219l.166.661-3.261.813 1.05 3.194-.653.21-1.273-3.891 3.971-.987z"/><path fill="#DBDBDB" d="M188.56 175.2v-65.695h-2.658V175.2h2.658zM195.269 175.196v-36.984h-2.658v36.984h2.658zM122.887 160.845v-36.984h-2.658v36.984h2.658z"/><path fill="#F6B600" d="M231.396 105.94l-.041 80.646-103.523-.054.031-59.875 19.734-20.757 83.799.04z"/><path fill="#fff" d="M231.396 105.94l-.041 80.646-103.523-.054.031-59.875 19.734-20.757 83.799.04z" opacity=".6"/><path fill="#F6B600" d="M127.863 126.657l19.734-20.757-.009 20.766-19.725-.009z"/><path fill="#fff" d="M127.863 126.657l19.734-20.757-.009 20.766-19.725-.009z" opacity=".4"/><path fill="#fff" d="M147.861 178.675l.023-44.837-2.657-.001-.024 44.836 2.658.002zM154.571 178.675l.023-44.837-2.657-.001-.024 44.836 2.658.002zM161.281 178.679l.023-44.836-2.657-.001-.024 44.836 2.658.001zM167.99 178.685l.034-65.696-2.658-.001-.034 65.695 2.658.002zM174.699 178.689l.035-65.696-2.658-.001-.034 65.696 2.657.001zM181.409 178.694l.035-65.696-2.658-.001-.034 65.695 2.657.002zM188.119 178.694l.034-65.696-2.657-.001-.035 65.695 2.658.002zM194.824 178.698l.035-65.696-2.658-.001-.034 65.696 2.657.001zM201.539 178.698l.034-65.696-2.657-.001-.035 65.696 2.658.001zM208.249 178.707l.034-65.696-2.657-.001-.035 65.696 2.658.001zM214.954 178.711l.035-65.695-2.658-.002-.034 65.696 2.657.001zM221.664 178.711l.035-65.695-2.658-.002-.034 65.696 2.657.001z"/><path fill="#F6B600" d="M215.887 190.146H105.293l-8.532-73.517h110.595l8.531 73.517z"/><path fill="#F6B600" d="M134.956 109.018H95.881l.88 7.611h41.321l-3.126-7.611z"/><path fill="#EB9481" d="M118.233 199.973c-1.01.326-29.833.071-30.927-.63-.416-.268-.621-4.467-.728-9.55-.023-1.094-.04-2.233-.054-3.381l-2.148-15.401 19.269.116 1.63 15.396-.116 3.382s10.992 5.034 12.109 5.931c1.117.898 1.992 3.824.965 4.137z"/><path fill="#fff" d="M118.233 199.973c-1.01.326-29.833.071-30.927-.63-.505-.326-.706-6.459-.782-12.953l18.76.111-.116 3.381s10.992 5.034 12.109 5.932c1.117.898 1.983 3.846.956 4.159z"/><path fill="#F6B600" d="M118.233 199.973c-1.01.326-29.833.071-30.927-.63-.416-.268-.621-4.467-.728-9.55l18.581.112s10.992 5.034 12.109 5.931c1.117.898 1.992 3.824.965 4.137z"/><path fill="#263238" d="M117.831 198.816c-4.833-.161-24.33-.358-29.118-.148-.036 0-.036.027 0 .027 4.784.268 24.285.304 29.118.197.089 0 .089-.076 0-.076zM115.424 194.787a3.876 3.876 0 00-2.904 1.152 3.77 3.77 0 00-1.099 2.569c0 .031.054.031.058 0a4.467 4.467 0 013.945-3.663.031.031 0 00.014-.012.034.034 0 00.005-.017.04.04 0 00-.005-.018.036.036 0 00-.014-.011zM107.03 190.401c-1.934-.045-4.18.62-5.4 2.188-.044.063.04.13.098.098a27.172 27.172 0 015.334-2.05.12.12 0 00.087-.132.121.121 0 00-.119-.104zM108.54 190.995c-1.934-.045-4.18.621-5.395 2.193-.05.058.035.125.093.098a26.536 26.536 0 015.302-2.05.124.124 0 00.092-.121.13.13 0 00-.025-.076.128.128 0 00-.067-.044zM110.005 191.593c-1.934-.044-4.181.617-5.396 2.189-.049.058.041.125.094.098a26.54 26.54 0 015.333-2.05.125.125 0 00.069-.05.124.124 0 00.019-.082.121.121 0 00-.119-.105zM111.492 192.187c-1.934-.044-4.18.617-5.395 2.189-.049.062.04.129.098.098a26.98 26.98 0 015.329-2.05.122.122 0 00.087-.132.123.123 0 00-.04-.075.12.12 0 00-.079-.03zM89.986 194.09c-2.171 0-2.194 3.359-.023 3.372 2.17.014 2.193-3.359.023-3.372z"/><path fill="#263238" d="M109.166 185.259c-.974-.821-2.234-.04-2.823.8a10.116 10.116 0 0 0-1.787 4.913.045.045 0 0 0 .003.023.047.047 0 0 0 .012.019.056.056 0 0 0 .02.011.06.06 0 0 0 .023.001.232.232 0 0 0 .133.169.24.24 0 0 0 .215-.008c1.385-.943 2.98-1.787 4.02-3.127.621-.75 1.104-2.023.184-2.801zm-2.412 4.087c-.67.483-1.34.925-2.015 1.43.323-.971.696-1.926 1.117-2.859.209-.448.449-.881.719-1.295.424-.639 2.336-2.234 2.51-.13.098 1.162-1.532 2.287-2.331 2.854z"/><path fill="#263238" d="M99.732 191.665c1.679.272 3.421-.192 5.079-.447a.241.241 0 0 0 .147-.353.041.041 0 0 0 .015-.017.046.046 0 0 0 0-.046 10.1 10.1 0 0 0-4.669-2.438c-1.019-.206-2.461.058-2.622 1.317-.161 1.26 1.067 1.823 2.05 1.984zm-1.161-1.113c-1.291-1.67 1.197-1.786 1.943-1.603.479.127.949.285 1.407.473.956.38 1.84.894 2.747 1.34-.818.072-1.626.21-2.444.309-.978.129-2.939.402-3.653-.519z"/><path fill="#455A64" d="M56.941 99.607s21.887 38.342 22.472 41.022c.894 4.118 5.249 44.733 5.249 44.733l21.56-.134s-3.573-35.805-7.227-47.632c-1.992-6.455-12.507-23.96-17.42-32.607-.447-.773-.313-4.306-.313-4.306l-24.32-1.076z"/><path fill="#263238" d="M104.15 181.628c-3.341-.062-13.463-.344-17.916 0-.036 0-.036.058 0 .063 1.527.241 14.575.08 17.916 0a.046.046 0 00.048.01.044.044 0 00.021-.017.043.043 0 00.007-.025.045.045 0 00-.007-.025.042.042 0 00-.021-.016.046.046 0 00-.026-.002.04.04 0 00-.022.012zM60.716 103.144c1.438 2.318 2.957 4.587 4.426 6.888 1.47 2.3 2.94 4.6 4.386 6.914a602.047 602.047 0 018.487 14.003 42.145 42.145 0 013.404 6.83 41.526 41.526 0 011.876 7.33c.424 2.501.697 5.029.947 7.553.268 2.68.534 5.369.8 8.066.547 5.503 1.094 11.012 1.638 16.527.067.675.134 1.34.193 2.028 0 .098-.17.116-.18 0-.62-5.472-1.12-10.952-1.674-16.428l-.83-8.179c-.255-2.532-.501-5.07-.863-7.593a49.804 49.804 0 00-1.586-7.352 35.17 35.17 0 00-3.126-7.147c-2.64-4.686-5.436-9.295-8.237-13.896-2.8-4.6-5.672-9.259-8.63-13.815a83.485 83.485 0 00-1.112-1.675c-.022-.058.054-.098.08-.054z"/><path fill="#EB9481" d="M65.611 201.536c-1.063-.089-28.332-11.52-29.082-12.596a.358.358 0 0 1-.04-.201c0-.943 1.956-4.221 3.573-8.527.102-.277.826-1.55 1.827-3.274 2.755-4.721 7.633-12.815 7.633-12.815l17.827 7.339-8.733 12.73-1.371 3.091s8.299 8.79 8.991 10.045c.693 1.255.43 4.279-.625 4.208z"/><path fill="#fff" d="M65.611 201.536c-1.063-.089-28.332-11.52-29.082-12.596a.358.358 0 0 1-.04-.201c0-.943 1.956-4.221 3.573-8.527.102-.277.826-1.55 1.827-3.274l16.727 7.254-1.371 3.091s8.299 8.79 8.991 10.045c.693 1.255.43 4.279-.625 4.208z"/><path fill="#F6B600" d="M65.606 201.536c-1.058-.076-28.332-11.52-29.078-12.583-.285-.402.983-4.131 3.574-8.728l17.183 7.071s8.303 8.791 9 10.046c.697 1.255.38 4.265-.679 4.194z"/><path fill="#263238" d="M65.66 200.312c-4.418-1.961-22.423-9.456-26.934-11.059-.04 0-.05 0 0 .026 4.337 2.042 22.396 9.38 26.916 11.105.09.035.116-.032.018-.072zM64.945 195.671a3.895 3.895 0 00-3.126 0 3.766 3.766 0 00-1.984 1.97c0 .027.036.049.054.022a4.466 4.466 0 015.03-1.916c.01.004.02.003.03-.002a.037.037 0 00.02-.022.041.041 0 00-.025-.052zM58.813 188.462c-1.787-.768-4.11-.996-5.807 0-.067.04 0 .134.054.125a26.768 26.768 0 015.708.103.123.123 0 00.07-.03.12.12 0 00-.026-.198zM59.97 189.57c-1.787-.764-4.11-.996-5.807 0-.067.04 0 .134.054.129 1.9-.172 3.814-.139 5.708.099a.124.124 0 00.108-.097.123.123 0 00-.01-.077.122.122 0 00-.054-.054zM61.122 190.682c-1.787-.768-4.105-.996-5.807 0-.067.036 0 .129.054.125a26.81 26.81 0 015.713.103.12.12 0 00.105-.099.12.12 0 00-.011-.075.12.12 0 00-.054-.054zM62.28 191.79c-1.788-.764-4.11-.996-5.808 0-.067.04 0 .134.054.129a26.55 26.55 0 015.713.099.126.126 0 00.069-.032.122.122 0 00.025-.143.117.117 0 00-.054-.053zM41.63 185.483c-2.006-.822-3.292 2.291-1.287 3.126 2.006.836 3.297-2.295 1.287-3.126z"/><path fill="#263238" d="M62.721 184.496c-.594-1.126-2.037-.867-2.917-.318a10.12 10.12 0 0 0-3.52 3.895.05.05 0 0 0-.005.023c0 .008.002.015.005.022a.054.054 0 0 0 .015.018.043.043 0 0 0 .021.009.233.233 0 0 0 .26.277c1.639-.349 3.43-.523 4.913-1.367.862-.491 1.786-1.496 1.228-2.559zm-3.761 2.885c-.8.192-1.604.344-2.399.567.688-.755 1.34-1.541 2.104-2.233.364-.335.749-.647 1.153-.934.634-.446 3.006-1.192 2.38.822-.357 1.104-2.291 1.55-3.238 1.778z"/><path fill="#263238" d="M51.572 186.894c1.457.894 3.243 1.103 4.87 1.501.169.045.28-.125.272-.268a.046.046 0 0 0 .021-.011.052.052 0 0 0 .015-.018.058.058 0 0 0 .005-.024.05.05 0 0 0-.006-.023 10.168 10.168 0 0 0-3.412-3.989c-.862-.571-2.3-.871-2.921.237s.308 2.077 1.157 2.595zm-.652-1.465c-.571-2.037 1.787-1.206 2.399-.759.395.297.771.619 1.126.965.745.71 1.375 1.514 2.04 2.287-.785-.242-1.585-.416-2.38-.63-.951-.259-2.872-.742-3.185-1.863z"/><path fill="#455A64" d="M60.028 183.504l-19.953-8.344s25.313-36.251 25.532-38.967c.192-2.407-10.47-23.517-10.823-29.636-.384-6.602 2.854-11.667 6.383-14.794l20.1 8.934s-1.756 3.573-5.217 5.494c0 0 10.309 24.37 9.612 31.82-.697 7.45-25.634 45.493-25.634 45.493z"/><path fill="#263238" d="M60.966 179.703c-2.881-1.282-2.037-.956-4.936-2.207-1.42-.612-10.72-4.623-12.167-4.962-.031 0-.054.045 0 .062 1.237.778 10.63 4.628 12.06 5.209 2.921 1.197 2.095.822 5.03 1.983a.048.048 0 00.025-.012.046.046 0 00.008-.054.046.046 0 00-.02-.019zM79.466 105.78a38.336 38.336 0 00-6.324 1.965.067.067 0 00.04.125c2.122-.594 4.284-1.143 6.365-1.845a.13.13 0 00-.08-.245z"/><path fill="#263238" d="M77.024 104.895c-.204.357-.386.725-.545 1.103a2.532 2.532 0 0 0-.282.925.07.07 0 0 0 .016.035.071.071 0 0 0 .105.005c.22-.26.399-.552.531-.866.18-.34.367-.679.536-1.023.116-.228-.232-.398-.361-.179z"/><path fill="#263238" d="M77.3 102.957c.13-.317.26-.635.398-.947.138-.313.308-.648.446-.983 0-.054.103 0 .08.04-.129.317-.214.652-.32.983-.108.33-.22.652-.331.978-.21.608-.447 1.206-.733 1.787.34.02.68-.034.996-.161.318-.196.566-.486.71-.831.188-.357.358-.719.55-1.067.23-.38.428-.779.59-1.193 0-.054.098 0 .08.036a13.71 13.71 0 01-1.135 2.537c-.192.313-.353.639-.706.759a2.827 2.827 0 01-1.179.063c-.049 0-.111 0-.093-.076.182-.653.398-1.295.647-1.925zM76.38 106.972c.715 1.568 1.34 3.127 2.01 4.69a118.35 118.35 0 011.854 4.619 125.812 125.812 0 013.194 9.54c.458 1.594.878 3.199 1.26 4.816a35.36 35.36 0 01.892 4.913 12.832 12.832 0 01-.478 4.913 28.2 28.2 0 01-1.88 4.565c-.447.925-.612.8-.389.331.635-1.34 2.3-5.36 2.234-8.764a25.654 25.654 0 00-.706-4.869 91.255 91.255 0 00-1.215-4.868c-.893-3.176-1.934-6.294-3.015-9.403-.607-1.742-1.264-3.47-1.88-5.208-.617-1.737-1.264-3.332-1.957-5.244a.044.044 0 01.028-.04.045.045 0 01.025-.003.048.048 0 01.023.012zM61.193 101.639c.362-.13.858.094 1.224.161.468.084.941.138 1.416.161.47.02.942.01 1.412-.032a2.995 2.995 0 001.34-.339 6.79 6.79 0 001.746-1.787 10.608 10.608 0 001.371-2.34c0-.05.09 0 .072.035-.156.478-.273.96-.474 1.43-.19.439-.415.861-.674 1.264a5.478 5.478 0 01-1.814 2.005c-.835.447-1.907.42-2.836.358-.536-.04-1.07-.118-1.594-.233-.38-.085-1.014-.156-1.256-.491a.117.117 0 01.067-.192z"/><path fill="#263238" d="M45.846 171.408a732.193 732.193 0 009.894-14.959 886.12 886.12 0 009.585-15.222c.75-1.219 1.617-2.439 2.109-3.792.536-1.479.259-2.912-.188-4.369a74.19 74.19 0 00-2.984-7.821c-1.125-2.564-2.34-5.083-3.533-7.593a72.812 72.812 0 01-3.337-7.665c-.848-2.515-1.152-5.119-.446-7.705.706-2.586 2.184-4.868 3.725-7.008.407-.567.818-1.126 1.224-1.689.031-.044.098 0 .067.05-1.697 2.233-3.355 4.596-4.364 7.231a12.602 12.602 0 00-.893 4.065 13.145 13.145 0 00.603 4.181c.777 2.631 2.028 5.132 3.189 7.593 1.161 2.461 2.412 5.052 3.573 7.593a81.138 81.138 0 013.1 7.853c.393 1.192.83 2.443.786 3.712-.044 1.393-.728 2.639-1.43 3.805-3.063 5.079-6.252 10.09-9.45 15.075-3.199 4.985-6.513 9.961-9.827 14.888l-1.291 1.889c-.05.058-.16-.036-.112-.112zM89.923 58.857c-1.34-2.077-3.984-2.836-6.642-2.581-2.657.254-5.9 1.272-6.668 5.74-.621 3.626.094 7.307-.358 11.38-.45 4.074-5.931 13.512.67 19.14 5.928 5.06 19.31 2.501 20.659-6.41 1.067-7.066-6.352-14.53-6.91-17.42-.559-2.89.746-7.57-.75-9.849z"/><path fill="#263238" d="M90.674 62.98a16.395 16.395 0 00.509 6.133c.15.514.37 1.005.652 1.46.272.447.567.867.857 1.287.595.835 1.18 1.666 1.725 2.519a21.275 21.275 0 012.586 5.454c.571 1.952.78 3.993.616 6.02.19-1.01.27-2.04.237-3.068a15.453 15.453 0 00-.447-3.064 18.887 18.887 0 00-2.524-5.646 56.53 56.53 0 00-1.76-2.528 10.575 10.575 0 01-1.54-2.56 13.264 13.264 0 01-.68-2.938 25.615 25.615 0 01-.231-3.069zM76.474 65.102c-.174 2.081-.268 4.163-.54 6.213a26.542 26.542 0 01-.572 3.037c-.255.978-.648 1.948-.996 2.93a39.7 39.7 0 00-.943 3.002 18.848 18.848 0 00-.522 3.126c-.068 1.059.01 2.121.232 3.159a7.875 7.875 0 001.385 2.809 8.383 8.383 0 01-1.112-2.868 11.169 11.169 0 01-.072-3.06c.294-2.041.82-4.044 1.568-5.967.335-.982.728-1.952.978-2.992.24-1.029.403-2.074.487-3.127a53.28 53.28 0 00.107-6.262z"/><path fill="#EB9481" d="M79.695 75.63c-.612 3.493-.242 18.608 1.518 23.432 2.055 5.623 6.651 15.526 8.255 15.517 1.527 0 9.853-4.869 8.933-6.222-.92-1.354-7.28-11.43-8.174-13.288-.536-1.104-3.824-12.208-5.887-17.764-1.876-5.03-3.801-6.482-4.645-1.675z"/><path fill="#F6B600" d="M79.123 85.367l9.724.992s-3.98-9.98-6-12.583c-2.232-2.93-3.26-1.14-3.742 2.345-.483 3.484.018 9.246.018 9.246z"/><path fill="#fff" d="M81.66 75.357a.49.49 0 1 1-.982.01.49.49 0 0 1 .982-.01zm-.492 5.7a.491.491 0 1 0 0 .982.491.491 0 0 0 0-.982zm4.275 0a.491.491 0 1 0 0 .982.491.491 0 0 0 0-.982zm-6.41-3.087h-.094c0 .313-.026.634-.035.956a.414.414 0 0 0 .13 0 .492.492 0 0 0 0-.983v.027zm4.275 0a.492.492 0 1 0-.009.983.492.492 0 0 0 .009-.983zm-4.248 6.19c.027.448.05.77.067.975a.491.491 0 0 0-.067-.974zm4.27 0a.492.492 0 1 0 .171.031.488.488 0 0 0-.193-.03h.022zm4.27 0a.491.491 0 1 0 .452.295.486.486 0 0 0-.474-.294h.022z"/><path fill="#263238" d="M87.654 84.492c-.33-.085-3.354-.447-4.02-.505-.665-.058-3.35-.349-4.02-.358a.023.023 0 0 0-.016.007.023.023 0 0 0-.005.024.023.023 0 0 0 .005.008.023.023 0 0 0 .016.007c.666.138 3.381.446 4.051.513.67.067 3.672.361 4.02.348 0 0-.004-.04-.03-.044z"/><path fill="#263238" d="M87.212 86.207l-8.09-.822s-.5-5.767 0-9.25c.354-2.542.983-4.181 2.18-3.74l5.91 13.812z"/><path fill="#F6B600" d="M81.668 102.577l1.166-9.75s3.694-2.739 3.265-6.254c-.214-1.787-2.613-10.903-4.627-13.664-1.894-2.59-5.655-1.983-7.32-.813-5.303 3.73-9.645 7.777-16.22 21.825l23.736 8.656z"/><path fill="#fff" d="M73.115 75.357a.491.491 0 1 1-.983.009.491.491 0 0 1 .983-.009zm3.783-.487a.492.492 0 1 0-.009.983.492.492 0 0 0 .01-.983zm4.27 0a.491.491 0 1 0 0 .982.491.491 0 0 0 0-.982zm-6.41-3.086a.225.225 0 0 0-.075 0 2.85 2.85 0 0 0-.282.156.491.491 0 1 0 .362-.165l-.004.009zm4.275 0a.492.492 0 1 0 0 .984.492.492 0 0 0 0-.984zM68.34 81.056a.492.492 0 1 0 0 .984.492.492 0 0 0 0-.984zm4.275 0a.492.492 0 1 0 .009 0h-.01zm4.274 0a.491.491 0 1 0 .01 0h-.01zm4.27 0a.492.492 0 1 0 .01 0h-.01zM70.48 77.97a.49.49 0 1 0 .01 0h-.01zm4.27 0a.491.491 0 1 0 .01 0h-.01zm4.275 0a.491.491 0 1 0 .01 0h-.01zm4.275 0a.49.49 0 1 0 .009 0h-.01zm-19.207 9.273a.491.491 0 1 0 .178.035.49.49 0 0 0-.191-.035h.013zm4.27 0a.491.491 0 1 0 .174.03.486.486 0 0 0-.196-.03h.022zm4.275 0a.491.491 0 1 0 .179.033.491.491 0 0 0-.192-.033h.013zm4.275 0a.492.492 0 1 0 .177.035.49.49 0 0 0-.19-.035h.013zm4.27 0a.491.491 0 1 0 .18.032.487.487 0 0 0-.194-.032h.014zm4.274 0a.491.491 0 1 0 .179.033.49.49 0 0 0-.192-.033h.013zM66.25 84.16a.491.491 0 1 0 .45.29.49.49 0 0 0-.486-.29h.036zm4.274 0a.492.492 0 1 0 .447.292.485.485 0 0 0-.483-.292h.036zm4.27 0a.491.491 0 1 0 .451.29.486.486 0 0 0-.486-.29h.035zm4.275 0a.491.491 0 1 0 .162.026.492.492 0 0 0-.198-.026h.036zm4.275 0a.492.492 0 1 0 .446.292.487.487 0 0 0-.482-.292h.036zM59.84 93.429a.491.491 0 1 0 .163.027.491.491 0 0 0-.199-.027h.036zm4.275 0a.492.492 0 1 0 .162.028.493.493 0 0 0-.198-.028h.036zm4.27 0a.491.491 0 1 0 .491.492.487.487 0 0 0-.536-.492h.045zm4.274 0a.491.491 0 1 0 .164.027.491.491 0 0 0-.2-.027h.036zm4.275 0a.492.492 0 1 0 .162.028.492.492 0 0 0-.198-.028h.036zm4.27 0a.491.491 0 1 0 .452.294.486.486 0 0 0-.488-.294h.036zm-19.229-3.082a.491.491 0 1 0 .45.291.488.488 0 0 0-.486-.29h.036zm4.275 0a.491.491 0 1 0 .45.291.488.488 0 0 0-.486-.29h.036zm4.274 0a.49.49 0 1 0 .447.292.485.485 0 0 0-.483-.292h.036zm4.27 0a.491.491 0 1 0 .451.291.485.485 0 0 0-.486-.29h.035zm4.275 0a.491.491 0 1 0 .162.027.49.49 0 0 0-.198-.027h.036zm4.275 0a.491.491 0 1 0 .446.292.487.487 0 0 0-.482-.292h.036zm-6.446 9.26a.492.492 0 1 0-.009.983.492.492 0 0 0 .01-.983zm4.27 0a.491.491 0 1 0 0 .982.491.491 0 0 0 0-.982zm-14.954-3.082a.483.483 0 0 0-.447.254l.894.335a.733.733 0 0 0 0-.103.491.491 0 0 0-.447-.477v-.01zm4.275 0a.491.491 0 1 0 .486.486.487.487 0 0 0-.486-.477v-.01zm4.27 0a.491.491 0 1 0 .491.486.487.487 0 0 0-.491-.477v-.01zm4.274 0a.491.491 0 1 0 .492.486.491.491 0 0 0-.492-.477v-.01z"/><path fill="#C7C7C7" d="M74.395 110.492l1.879 4.568 26.66-10.966-1.879-4.57-26.66 10.968z"/><path fill="#263238" d="M60.363 114.896l2.84 6.91 18.622-7.66-2.845-6.91-18.617 7.66z"/><path fill="#37474F" d="M102.171 82.263a22.508 22.508 0 0 1 22.587-10.752 22.514 22.514 0 0 1 10.203 40.328 22.516 22.516 0 0 1-24.983 1.284 22.536 22.536 0 0 1-7.807-30.86zm2.233 1.34a19.925 19.925 0 0 0 1.139 22.116 19.928 19.928 0 0 0 30.78 1.438 19.937 19.937 0 0 0 3.196-21.914 19.936 19.936 0 0 0-7.792-8.555 19.958 19.958 0 0 0-27.341 6.892l.018.023z"/><path fill="#37474F" d="M119.149 116.852a23.292 23.292 0 0 1-14.697-39.117 23.292 23.292 0 0 1 36.478 28.693 23.292 23.292 0 0 1-13.741 9.817 23.092 23.092 0 0 1-8.04.607zm4.578-44.8a21.829 21.829 0 0 0-23.383 27.108 21.825 21.825 0 0 0 42.667-1.776 21.826 21.826 0 0 0-19.284-25.332zm-4.315 42.232a20.613 20.613 0 0 1-16.307-11.246 20.612 20.612 0 0 1 7.764-26.9 20.6 20.6 0 1 1 15.69 37.61 20.728 20.728 0 0 1-7.147.536zm-14.449-30.373a19.284 19.284 0 0 0 3.623 24.2 19.28 19.28 0 0 0 24.443 1.16 19.286 19.286 0 0 0 5.898-23.749 19.286 19.286 0 0 0-22.146-10.41 19.285 19.285 0 0 0-11.814 8.812l-.004-.013z"/><g opacity=".2"><path fill="#fff" d="M128.877 76.112a19.147 19.147 0 0 0-26.139 13.895 19.16 19.16 0 0 0 1.063 11.065 19.144 19.144 0 0 0 28.306 8.664 19.156 19.156 0 0 0 7.075-8.575 19.158 19.158 0 0 0-10.305-25.049z" opacity=".2"/><path fill="#EBEBEB" d="M123.629 74.75a19.171 19.171 0 00-21.141 16.74l21.141-16.74zM139.128 86.3l-28.958 22.928a19.268 19.268 0 003.962 2.233 18.811 18.811 0 005.034 1.34l21.382-16.928a19.082 19.082 0 00-1.42-9.573zM130.601 76.938l-27.586 21.838c.332 1.212.781 2.39 1.34 3.515l29.373-23.258a18.661 18.661 0 00-3.127-2.095zM137.94 83.973l-29.775 23.567c.17.165.335.321.509.477l29.61-23.44a5.56 5.56 0 00-.344-.604zM138.789 102.041l-13.213 10.461c.56-.122 1.114-.271 1.662-.447l10.747-8.486c.29-.505.558-1.01.804-1.528z" opacity=".2"/></g><path fill="#EB9481" d="M72.396 73.137c-2.805 1.934-14.986 11.797-16.433 17.47-.893 3.479 5.306 15.7 6.981 18.625.733 1.273 9.492-3.086 9.827-4.623.335-1.536-5.985-12.596-6.101-13.748 0 0 5.641-9.09 8.638-13.932 2.832-4.57 2.327-7.4-2.912-3.792z"/><path fill="#EB9481" d="M76.38 112.949c.996 1.545 3.573 2.756 2.68 3.801-.782.933-2.497-.081-2.497-.081s1.563 1.765.447 2.528c-1.117.764-2.778-.732-2.778-.732s1.366 1.411.183 2.09c-1.184.679-2.81-.335-2.81-.335s.112.675-.938.778c-1.5.151-3.765-2.203-4.654-3.708-.889-1.505-3.029-7.687-3.341-8.638l9.63-5.807s2.819 1.952 4.127 3.127c1.309 1.174 4.556 6.195 3.364 7.084-1.193.889-3.426-2.703-4.168-3.462-.741-.759-1.04-.719-.974-.116.036.402 1.282 2.787 1.73 3.471z"/><path fill="#263238" d="M76.514 116.58c-2.282-1.577-3.01-2.68-4.082-5.177 0-.049-.099-.031-.08.022.826 2.56 1.536 4.052 4.09 5.271.126.063.18-.04.072-.116zM74.334 118.51c-2.233-1.85-3.023-3.02-4.341-5.57 0-.036-.08 0-.067.031 1.08 2.608 1.831 4.082 4.301 5.637.112.071.21-.014.107-.098zM71.587 120.185c-2.032-1.943-2.961-3.19-3.921-5.834a.053.053 0 00-.027-.021.05.05 0 00-.034 0 .049.049 0 00-.028.02.052.052 0 00-.01.032c.715 2.788 1.868 4.351 3.953 5.856.143.103.193.067.067-.053z"/><path fill="#F6B600" d="M71.98 83.763l-9-3.85s8.34-6.785 11.354-8.089c3.395-1.47 3.4.585 2.135 3.864-1.264 3.278-4.489 8.075-4.489 8.075z"/><path fill="#fff" d="M68.836 75.388a.482.482 0 0 1-.487.447.444.444 0 0 1-.112 0l.6-.447zm3.788-.518a.491.491 0 1 0 0 .982.491.491 0 0 0 0-.982zm3.783.487a.446.446 0 0 0 .094.286c.098-.259.192-.514.268-.755a.487.487 0 0 0-.362.47zm-1.648-3.573a.491.491 0 1 0 0 .982.491.491 0 0 0 0-.982zm-6.419 9.273a.491.491 0 1 0 0 .982.491.491 0 0 0 0-.982zm4.275 0a.491.491 0 1 0 .009 0h-.01zm-6.41-3.087a.491.491 0 1 0 .01 0h-.01zm4.275 0a.49.49 0 1 0 .009 0h-.01zm4.27 0a.491.491 0 1 0 .17.952l.308-.572a.492.492 0 0 0-.47-.38h-.008z"/><path fill="#263238" d="M64.94 78.859c.336.085 3.154 1.242 3.762 1.505.607.264 3.1 1.34 3.703 1.648.026 0 0 .058 0 .045-.653-.2-3.167-1.264-3.793-1.519-.625-.254-3.385-1.465-3.671-1.639-.045-.013-.023-.044 0-.04z"/><path fill="#263238" d="M71.27 83.455c.277.098.706.264.706.264.643-.934 3.466-5.954 4.167-7.147h.031c-.35.706-.708 1.407-1.072 2.104l.18-.237c.214-.281.446-.558.642-.849 0 0 .058 0 .04.027a8.34 8.34 0 0 1-.589.894 8.448 8.448 0 0 1-.491.567c-.21.402-.416.8-.64 1.192-.674 1.21-1.34 2.488-2.103 3.645a5.215 5.215 0 0 1-.893-.41c-.05-.014-.018-.063.022-.05z"/><path fill="#EB9481" d="M98.526 111.564a1.79 1.79 0 0 1-2.086.259s.25 1.684-.942 2.439c-.612.388-1.787-.25-1.787-.25s.139 1.34-.965 1.961c-.893.486-1.907-.228-1.907-.228s-.474 1.362-1.523 1.568c-2.135.419-7.053-6.638-5.217-9.541.857-1.34 1.965.446 1.965.446s-.97-2.957.447-4.02c1.416-1.063 2.725 1.34 2.725 1.34s-.916-2.872.674-3.814c1.657-.978 2.546 1.653 2.546 1.653s-.031-2.31 1.34-2.752c2.287-.728 2.113 4.435 3.573 5.731l3.332-1.385s-1.031 5.57-2.175 6.593z"/><path fill="#263238" d="M90.674 115.655c0 .023 0 .054-.032.036a14.936 14.936 0 01-4.636-7.571c0-.094.125-.17.165-.071a30.532 30.532 0 004.502 7.606zM93.733 114.056c.023.027 0 .063-.049.041-2.233-2.002-4.19-5.195-4.542-8.576 0-.117.093-.233.116-.099.406 2.225 2.698 6.499 4.475 8.634zM92.532 103.144c.446 3.23 1.916 5.986 3.814 8.603.023.036-.027.067-.053.045-1.278-1.028-2.314-2.823-3.002-4.284a8.576 8.576 0 01-.893-4.346c.026-.058.125-.085.134-.018z"/><path fill="#263238" d="M86.042 108.026a6.203 6.203 0 0 1-.362-1.831 2.68 2.68 0 0 1 .51-1.818c.213-.265.503-.457.83-.549a1.34 1.34 0 0 1 .992.178 3.77 3.77 0 0 1 1.268 1.447l-.286.112a5.73 5.73 0 0 1-.205-1.907 2.773 2.773 0 0 1 .75-1.787c.242-.239.542-.412.871-.5a1.29 1.29 0 0 1 1.005.183 3.22 3.22 0 0 1 1.108 1.572l-.21.032c.025-.303.08-.602.165-.894.08-.299.204-.585.367-.848.16-.27.385-.495.656-.653.275-.14.587-.193.893-.151-.3-.014-.598.061-.857.214a1.736 1.736 0 0 0-.58.652 4.205 4.205 0 0 0-.447 1.711l-.027.447-.183-.447a3.04 3.04 0 0 0-1.054-1.403.97.97 0 0 0-.782-.134 1.617 1.617 0 0 0-.724.447 2.435 2.435 0 0 0-.634 1.595c-.042.6.016 1.204.17 1.786l.317 1.251-.608-1.135a3.51 3.51 0 0 0-1.139-1.34 1.093 1.093 0 0 0-.79-.169c-.28.068-.53.224-.715.446a2.609 2.609 0 0 0-.54 1.675 6.698 6.698 0 0 0 .24 1.818z"/><path fill="#EB9481" d="M77.903 72.923c-.035.447.974 3.462 3.046 3.841 1.077.197 1.752-2.724 1.752-2.724l.138-.237 1.952-3.301-3.314-4.042-.487-.55s-.474.938-1.054 2.113l-.08.17a19.753 19.753 0 0 0-.362.72c-.085.177-.135.271-.197.414l-.197.447a25.546 25.546 0 0 0-1.197 3.149z"/><path fill="#263238" d="M79.954 68.023a7.683 7.683 0 0 0 2.903 5.78l1.952-3.301-3.314-4.042-.487-.55s-.492.938-1.054 2.113z"/><path fill="#EB9481" d="M91.754 67.031c-1.67 6.522-5.762 6.254-7.146 5.896-1.278-.326-5.584-1.608-4.597-8.268.988-6.66 4.547-7.946 7.504-7.347 2.957.598 5.91 3.198 4.24 9.72z"/><path fill="#263238" d="M80.244 64.249c1.51.544 2.332-1.85 2.332-1.85s1.786.447 2.867-2.282a4.468 4.468 0 0 0 2.452 3.127c.447.245-.737-1.608-.737-1.608s1.34 2.483 5.262 3.09c.277.04 1.081-4.02-1.34-6.356-2.42-2.336-5.28-2.492-7.696-1.3a3.694 3.694 0 0 0-2.805 2.082c-.938 1.907-.92 4.887-.335 5.097z"/><path fill="#EB9481" d="M81.079 64.999s-.688-2.466-1.787-2.287c-1.098.179-1.036 3.417-.116 4.18a1.135 1.135 0 0 0 1.64-.07l.263-1.823z"/><path fill="#263238" d="M79.35 63.641v.027c.64.558.787 1.38.81 2.188a.624.624 0 00-.832-.473c-.022 0 0 .045 0 .05a.692.692 0 01.644.481c.074.231.122.47.142.71 0 .081.143.086.148 0 .34-.964.067-2.536-.911-2.983zM90.625 66.232a4.482 4.482 0 01-.402-.233c-.152-.093-.286-.147-.367-.317a.242.242 0 01.094-.277.59.59 0 01.599.05c.19.093.34.252.424.446a.255.255 0 01-.348.33zM86.694 64.115c.147.033.296.059.447.075a.715.715 0 00.482 0 .241.241 0 00.107-.272.604.604 0 00-.496-.344.862.862 0 00-.62.09.255.255 0 00.08.45zM87.1 66.058s-.04 0-.045.026c-.116.447-.326.934-.768.956v.027c.491.08.764-.572.813-1.01z"/><path fill="#263238" d="M86.841 65.481c-.692-.268-1.175 1.13-.536 1.38s1.112-1.156.536-1.38z"/><path fill="#263238" d="M86.537 65.459c-.147.036-.317.134-.469.098-.151-.035-.254-.232-.317-.41h-.026a.536.536 0 00.183.714.545.545 0 00.678-.29c.032-.036.014-.125-.049-.112zM88.243 68.59s-.125.68-.227.987c0 .032-.09 0-.192 0a1.524 1.524 0 01-1.233-1.014.032.032 0 01-.001-.024.032.032 0 01.059-.002 2.34 2.34 0 001.201.821c.054-.076.18-1.17.228-1.157.232.1.448.23.643.39.304-1.412.38-2.855.706-4.253a.044.044 0 01.069-.022.044.044 0 01.016.022 23.398 23.398 0 01-.563 4.614c-.062.174-.598-.268-.706-.362zM90.99 67.134a1.29 1.29 0 00-.71-.263 1.142 1.142 0 00-.401.049c-.131.05-.25.128-.349.227l-.178.183.25.045c.18.032.356.081.527.148.174.066.328.177.446.321a.817.817 0 00-.357-.496 1.584 1.584 0 00-.58-.24l.075.227a.893.893 0 01.563-.237c.239-.02.48-.007.715.036z"/><path fill="#263238" d="M90.008 67.893a2.392 2.392 0 0 1-.474-.348c-.03-.036-.152-.188-.134-.219.047-.086.104-.165.17-.237a.78.78 0 0 0-.223.215.37.37 0 0 0 .125.299c.15.143.334.243.536.29z"/><path fill="#fff" d="M121.087 52.707a11.123 11.123 0 0 1-7.128 9.256 11.128 11.128 0 0 1-11.471-2.217l-5.561.8 2.787-4.815a11.133 11.133 0 0 1 8.743-15.251 11.132 11.132 0 0 1 12.032 7.24c.576 1.596.781 3.3.598 4.987z"/><path fill="#263238" d="M121.087 52.707a11.17 11.17 0 0 1-2.234 5.641 10.114 10.114 0 0 1-2.184 2.157 10.834 10.834 0 0 1-2.68 1.497c-.961.376-1.969.616-2.997.714-.514.047-1.03.056-1.545.027a9.888 9.888 0 0 1-1.541-.156 11.284 11.284 0 0 1-5.526-2.734l.13.04-5.561.854-.406.062.205-.357 2.77-4.824v.192a11.243 11.243 0 1 1 21.582-3.127l-.013.014zm0 0a11.017 11.017 0 0 0-7.642-11.68 11.01 11.01 0 0 0-4.981-.38 10.933 10.933 0 0 0-4.601 1.813 11.463 11.463 0 0 0-3.327 3.636 10.992 10.992 0 0 0-1.416 4.708 11.12 11.12 0 0 0 .786 4.85l.04.099-.053.094-2.806 4.801-.196-.29 5.574-.782h.076l.054.054a10.972 10.972 0 0 0 5.333 2.747c.497.09 1 .142 1.505.156.507.036 1.016.036 1.523 0a10.969 10.969 0 0 0 2.975-.652c.959-.349 1.862-.837 2.68-1.447.411-.304.803-.632 1.175-.983.361-.361.7-.744 1.014-1.148a11.2 11.2 0 0 0 2.287-5.596z"/><path fill="#F6B600" d="M110.845 53.18v1.264a.927.927 0 0 1-.282.677.932.932 0 0 1-.683.266.955.955 0 0 1-.956-.956v-2.028-.036-.04a.98.98 0 0 1 .956-.96 2.183 2.183 0 0 0 1.544-3.73 2.183 2.183 0 0 0-2.624-.354 2.15 2.15 0 0 0-.792.787.963.963 0 0 1-1.34.353.95.95 0 0 1-.33-1.309 4.094 4.094 0 0 1 3.32-2.042 4.1 4.1 0 0 1 1.146 8.09l.041.018zm0 4.27v.349a.934.934 0 0 1-.956.956.955.955 0 0 1-.956-.956v-.349a.966.966 0 0 1 1.323-.885.95.95 0 0 1 .589.885z"/></svg>