<svg xmlns="http://www.w3.org/2000/svg" width="32" height="32" fill="none" viewBox="0 0 32 32"><circle cx="16" cy="16" r="16" fill="#fff"/><path fill="#C72C41" d="M16 9.333c-3.673 0-6.667 2.994-6.667 6.667 0 3.673 2.994 6.667 6.667 6.667 3.673 0 6.667-2.994 6.667-6.667 0-3.673-2.994-6.667-6.667-6.667zm2.24 8.2a.503.503 0 0 1 0 .707.495.495 0 0 1-.707 0L16 16.707l-1.533 1.533c-.1.1-.227.147-.354.147a.495.495 0 0 1-.353-.147.503.503 0 0 1 0-.707L15.293 16l-1.533-1.533a.503.503 0 0 1 0-.707.503.503 0 0 1 .707 0L16 15.293l1.533-1.533a.503.503 0 0 1 .707 0 .503.503 0 0 1 0 .707L16.707 16l1.533 1.533z"/></svg>