<svg xmlns="http://www.w3.org/2000/svg" width="20" height="21" fill="none" viewBox="0 0 20 21"><g clip-path="url(#clip0_74_3739)"><path fill="#1877F2" d="M20 10.863c0 4.991-3.657 9.128-8.438 9.878v-6.988h2.33l.444-2.89h-2.774V8.987c0-.791.388-1.562 1.63-1.562h1.261v-2.46s-1.144-.196-2.239-.196c-2.284 0-3.777 1.384-3.777 3.89v2.204H5.899v2.89h2.54v6.988C3.657 19.991 0 15.854 0 10.863c0-5.523 4.477-10 10-10s10 4.477 10 10z"/><path fill="#fff" d="M13.893 13.753l.443-2.89h-2.774V8.987c0-.791.388-1.562 1.63-1.562h1.261v-2.46s-1.144-.196-2.238-.196c-2.285 0-3.777 1.384-3.777 3.89v2.204h-2.54v2.89h2.54v6.988a10.085 10.085 0 0 0 3.124 0v-6.988h2.33z"/></g><defs><clipPath id="clip0_74_3739"><path fill="#fff" d="M0 0h20v20H0z" transform="translate(0 .863)"/></clipPath></defs></svg>