<svg xmlns="http://www.w3.org/2000/svg" width="16" height="17" fill="none" viewBox="0 0 16 17"><g clip-path="url(#clip0_129_11562)"><path fill="#F6B600" d="M15.527 6.882a.668.668 0 0 0-.944 0l-7.272 7.304a3.339 3.339 0 0 1-4.722-4.721l7.043-7.073a2.003 2.003 0 0 1 2.833 2.833l-7.043 7.072a.682.682 0 0 1-.944 0 .668.668 0 0 1 0-.944l6.27-6.3a.668.668 0 0 0-.943-.944l-6.272 6.3a2.003 2.003 0 0 0 0 2.833c.793.757 2.04.757 2.833 0L13.41 6.17a3.339 3.339 0 0 0-4.72-4.72L1.643 8.52a4.674 4.674 0 0 0 6.61 6.61l7.273-7.302a.668.668 0 0 0 .003-.944l-.003-.003z"/></g><defs><clipPath id="clip0_129_11562"><path fill="#fff" d="M0 0h16v16H0z" transform="translate(0 .5)"/></clipPath></defs></svg>