<svg xmlns="http://www.w3.org/2000/svg" width="16" height="16" fill="none" viewBox="0 0 16 16"><g fill="#8A8A8A" clip-path="url(#clip0_109_8287)"><path d="M.667 3.167H2.49a2.485 2.485 0 004.796 0h8.046a.667.667 0 100-1.334H7.287a2.485 2.485 0 00-4.796 0H.667a.667.667 0 000 1.334zm4.222-1.834a1.167 1.167 0 110 2.334 1.167 1.167 0 010-2.334zM15.333 7.333H13.51a2.484 2.484 0 00-4.796 0H.667a.667.667 0 000 1.334h8.046a2.485 2.485 0 004.796 0h1.824a.667.667 0 100-1.334zm-4.222 1.834a1.166 1.166 0 110-2.333 1.166 1.166 0 010 2.333zM15.333 12.833H7.287a2.485 2.485 0 00-4.796 0H.667a.667.667 0 000 1.334H2.49a2.485 2.485 0 004.796 0h8.046a.667.667 0 000-1.334zM4.89 14.667a1.167 1.167 0 110-2.334 1.167 1.167 0 010 2.334z"/></g><defs><clipPath id="clip0_109_8287"><path fill="#fff" d="M0 0h16v16H0z"/></clipPath></defs></svg>