<svg xmlns="http://www.w3.org/2000/svg" width="20" height="21" fill="none" viewBox="0 0 20 21"><g clip-path="url(#clip0_74_3745)"><path fill="#FBBB00" d="M4.432 12.949l-.696 2.599-2.544.054A9.956 9.956 0 0 1 0 10.862c0-1.658.403-3.221 1.118-4.598l2.266.415.992 2.252a5.944 5.944 0 0 0-.32 1.932c0 .734.132 1.437.376 2.086z"/><path fill="#518EF8" d="M19.825 8.994a10.018 10.018 0 0 1-.044 3.956 9.998 9.998 0 0 1-3.52 5.71h-.001l-2.853-.145-.404-2.521a5.96 5.96 0 0 0 2.564-3.043H10.22V8.994h9.605z"/><path fill="#28B446" d="M16.26 18.66A9.957 9.957 0 0 1 10 20.864a9.999 9.999 0 0 1-8.808-5.261l3.24-2.653a5.946 5.946 0 0 0 8.57 3.045l3.258 2.666z"/><path fill="#F14336" d="M16.383 3.165l-3.24 2.652A5.948 5.948 0 0 0 4.376 8.93L1.12 6.264A9.998 9.998 0 0 1 10 .863c2.426 0 4.651.864 6.383 2.302z"/></g><defs><clipPath id="clip0_74_3745"><path fill="#fff" d="M0 0h20v20H0z" transform="translate(0 .863)"/></clipPath></defs></svg>