<svg xmlns="http://www.w3.org/2000/svg" width="16" height="17" fill="none" viewBox="0 0 16 17"><g clip-path="url(#clip0_1161_13683)"><path fill="#EA4E1B" d="M12.667 3.167h-.734A3.34 3.34 0 0 0 8.667.5H7.333a3.34 3.34 0 0 0-3.266 2.667h-.734A3.337 3.337 0 0 0 0 6.5v6.667A3.337 3.337 0 0 0 3.333 16.5h9.334A3.337 3.337 0 0 0 16 13.167V6.5a3.337 3.337 0 0 0-3.333-3.333zM7.333 1.833h1.334a2 2 0 0 1 1.877 1.334H5.456a2 2 0 0 1 1.877-1.334zm-4 2.667h9.334a2 2 0 0 1 2 2v2H1.333v-2a2 2 0 0 1 2-2zm9.334 10.667H3.333a2 2 0 0 1-2-2V9.833h6v.667a.667.667 0 1 0 1.334 0v-.667h6v3.334a2 2 0 0 1-2 2z"/></g><defs><clipPath id="clip0_1161_13683"><path fill="#fff" d="M0 0h16v16H0z" transform="translate(0 .5)"/></clipPath></defs></svg>