<svg xmlns="http://www.w3.org/2000/svg" width="16" height="16" fill="none" viewBox="0 0 16 16"><path fill="#EA4E1B" d="M14.422 4.431a4.065 4.065 0 0 0-.89-1.293 4.146 4.146 0 0 0-2.912-1.184A4.173 4.173 0 0 0 8 2.876a4.173 4.173 0 0 0-2.62-.923 4.146 4.146 0 0 0-2.913 1.184A4.038 4.038 0 0 0 1.25 6.023c0 .52.106 1.063.317 1.615.177.46.43.939.753 1.421.513.764 1.218 1.561 2.092 2.37a23.385 23.385 0 0 0 2.947 2.3l.37.238a.502.502 0 0 0 .54 0l.37-.237c.061-.04 1.495-.963 2.947-2.302.875-.808 1.58-1.605 2.092-2.369.324-.482.578-.96.753-1.421a4.52 4.52 0 0 0 .317-1.615 3.977 3.977 0 0 0-.326-1.592z"/></svg>