<svg xmlns="http://www.w3.org/2000/svg" width="16" height="16" fill="none" viewBox="0 0 16 16"><path fill="#EA4E1B" d="M11.665 1a4.476 4.476 0 0 0-2.128.57A4.13 4.13 0 0 0 8 3.063 4.13 4.13 0 0 0 6.463 1.57 4.476 4.476 0 0 0 4.335 1 4.662 4.662 0 0 0 1.2 2.366 4.102 4.102 0 0 0 .003 5.408c0 4.236 7.301 9.129 7.612 9.336L8 15l.385-.256c.31-.206 7.612-5.1 7.612-9.336A4.103 4.103 0 0 0 14.8 2.366 4.662 4.662 0 0 0 11.665 1zM8 13.46C5.832 11.942 1.336 8.21 1.336 5.409a2.89 2.89 0 0 1 .806-2.159 3.283 3.283 0 0 1 2.193-.998 3.283 3.283 0 0 1 2.193.998 2.89 2.89 0 0 1 .806 2.159h1.332a2.89 2.89 0 0 1 .806-2.159 3.283 3.283 0 0 1 2.193-.998 3.283 3.283 0 0 1 2.193.998 2.89 2.89 0 0 1 .806 2.159c0 2.802-4.496 6.533-6.664 8.053z"/></svg>