<svg xmlns="http://www.w3.org/2000/svg" width="20" height="20" fill="none" viewBox="0 0 20 20"><g clip-path="url(#clip0_798_15801)"><path fill="#8A8A8A" d="M19.5 8.66l-.002-.002L11.34.5a1.829 1.829 0 0 0-1.302-.54A1.83 1.83 0 0 0 8.736.5L.582 8.654l-.008.009a1.843 1.843 0 0 0 .003 2.6 1.83 1.83 0 0 0 1.279.54h.325v6.003c0 1.188.967 2.155 2.155 2.155h3.192a.586.586 0 0 0 .586-.586v-4.707c0-.542.44-.983.983-.983h1.883c.542 0 .983.44.983.983v4.707c0 .323.262.586.586.586h3.191a2.157 2.157 0 0 0 2.155-2.155v-6.004h.302a1.83 1.83 0 0 0 1.302-.54A1.844 1.844 0 0 0 19.5 8.66zm-.83 1.774a.665.665 0 0 1-.473.197h-.887a.586.586 0 0 0-.586.585v6.59c0 .542-.441.983-.984.983h-2.606v-4.121a2.157 2.157 0 0 0-2.155-2.155H9.098a2.158 2.158 0 0 0-2.155 2.155v4.121H4.336a.984.984 0 0 1-.983-.983v-6.59a.586.586 0 0 0-.586-.585h-.872a.664.664 0 0 1-.488-.196.67.67 0 0 1 0-.948l8.158-8.158a.665.665 0 0 1 .946 0l8.157 8.156.004.004a.67.67 0 0 1-.002.945z"/></g><defs><clipPath id="clip0_798_15801"><path fill="#fff" d="M0 0h20v20H0z"/></clipPath></defs></svg>