<svg xmlns="http://www.w3.org/2000/svg" width="19" height="19" fill="none" viewBox="0 0 19 19"><path fill="#EA4E1B" d="M18.49 8.264l-.002-.001-7.751-7.75C10.407.183 9.967 0 9.5 0c-.467 0-.906.182-1.237.512L.516 8.26l-.008.008a1.751 1.751 0 0 0 .003 2.47 1.739 1.739 0 0 0 1.215.512h.309v5.704A2.05 2.05 0 0 0 4.082 19h3.033c.307 0 .557-.25.557-.557v-4.471c0-.515.419-.934.934-.934h1.789c.514 0 .934.419.934.934v4.471c0 .308.249.557.556.557h3.033a2.05 2.05 0 0 0 2.047-2.047v-5.704h.287c.467 0 .906-.182 1.237-.512a1.752 1.752 0 0 0 0-2.473z"/></svg>