<svg xmlns="http://www.w3.org/2000/svg" width="17" height="16" fill="none" viewBox="0 0 17 16"><path fill="#EA4E1B" d="M11.415 15h-5.83a2.343 2.343 0 0 1-2.245-1.68 2.298 2.298 0 0 1-.066-.979A7.304 7.304 0 0 1 5.841 8a7.305 7.305 0 0 1-2.566-4.342 2.298 2.298 0 0 1 .534-1.841A2.341 2.341 0 0 1 5.585 1h5.83a2.344 2.344 0 0 1 2.244 1.678 2.3 2.3 0 0 1 .067.98A7.325 7.325 0 0 1 11.153 8a7.325 7.325 0 0 1 2.57 4.345 2.3 2.3 0 0 1-.535 1.84 2.344 2.344 0 0 1-1.773.815zm0-12.833h-5.83a1.175 1.175 0 0 0-1.125.832 1.12 1.12 0 0 0-.033.484C4.647 4.94 5.55 6.306 7.111 7.54a.583.583 0 0 1 0 .915c-1.561 1.236-2.463 2.602-2.684 4.06a1.12 1.12 0 0 0 .266.909 1.175 1.175 0 0 0 .892.408h5.83a1.173 1.173 0 0 0 1.125-.832c.046-.156.057-.321.033-.482-.218-1.451-1.12-2.817-2.684-4.062a.583.583 0 0 1 0-.912c1.564-1.244 2.466-2.61 2.684-4.062a1.119 1.119 0 0 0-.27-.908 1.174 1.174 0 0 0-.888-.408zm-.77 10.5H6.352a.583.583 0 0 1-.541-.802 6.524 6.524 0 0 1 2.025-2.492l.302-.24a.583.583 0 0 1 .726 0l.297.237a6.592 6.592 0 0 1 2.026 2.494.584.584 0 0 1-.54.803zM7.353 11.5h2.291a6.75 6.75 0 0 0-1.145-1.167c-.429.34-.814.732-1.146 1.167z"/></svg>