<svg xmlns="http://www.w3.org/2000/svg" width="20" height="20" fill="none" viewBox="0 0 20 20"><g fill="#8A8A8A" clip-path="url(#clip0_798_15838)"><path d="M19.578 17.457l-4.946-4.946a8.008 8.008 0 1 0-2.12 2.121l4.945 4.946a1.5 1.5 0 0 0 2.12-2.121zM1.02 8.019a6.999 6.999 0 1 1 6.999 6.999 7.007 7.007 0 0 1-7-6.999zm17.85 10.852a.5.5 0 0 1-.707 0l-4.862-4.862c.25-.22.486-.457.707-.707l4.862 4.862a.5.5 0 0 1 0 .707z"/><path d="M9.618 7.925a2.5 2.5 0 1 0-3.198 0 3.49 3.49 0 0 0-1.9 3.094.5.5 0 0 0 .499.5h5.999a.5.5 0 0 0 .5-.5 3.49 3.49 0 0 0-1.9-3.094zM6.519 6.02a1.5 1.5 0 1 1 3 0 1.5 1.5 0 0 1-3 0zm-.95 4.5a2.5 2.5 0 0 1 4.9 0h-4.9z"/></g><defs><clipPath id="clip0_798_15838"><path fill="#fff" d="M0 0h20v20H0z"/></clipPath></defs></svg>