<svg xmlns="http://www.w3.org/2000/svg" width="40" height="42" fill="none" viewBox="0 0 40 42"><circle cx="20" cy="21.725" r="20" fill="#3988FF" opacity=".1"/><g clip-path="url(#clip0_952_4544)"><path fill="#3988FF" d="M24.667 16.03h-.734a3.34 3.34 0 0 0-3.266-2.667h-1.334a3.34 3.34 0 0 0-3.266 2.666h-.734A3.337 3.337 0 0 0 12 19.363v6.666a3.338 3.338 0 0 0 3.333 3.334h9.334A3.337 3.337 0 0 0 28 26.029v-6.666a3.337 3.337 0 0 0-3.333-3.334zm-5.334-1.334h1.334a2 2 0 0 1 1.877 1.333h-5.088a2 2 0 0 1 1.877-1.333zm-4 2.667h9.334a2 2 0 0 1 2 2v2H13.333v-2a2 2 0 0 1 2-2zm9.334 10.666h-9.334a2 2 0 0 1-2-2v-3.333h6v.667a.667.667 0 0 0 1.334 0v-.667h6v3.333a2 2 0 0 1-2 2z"/></g><defs><clipPath id="clip0_952_4544"><path fill="#fff" d="M0 0h16v16H0z" transform="translate(12 13.363)"/></clipPath></defs></svg>