<svg xmlns="http://www.w3.org/2000/svg" width="18" height="18" fill="none" viewBox="0 0 18 18"><path fill="#EA4E1B" d="M11.454 10.076a6.335 6.335 0 00-.634-8.22 6.34 6.34 0 00-8.964 0 6.336 6.336 0 000 8.96 6.336 6.336 0 009.598-.74zm-1.201-.741v-.179a2.088 2.088 0 00-2.09-2.087h-.676L6.353 9.232c-.005.014-.028.014-.03 0L5.188 7.069H4.51a2.087 2.087 0 00-2.087 2.087v.177a4.897 4.897 0 01-1.019-2.997 4.91 4.91 0 011.445-3.49 4.904 4.904 0 013.49-1.445c1.316 0 2.556.514 3.488 1.445a4.903 4.903 0 01.496 6.4c-.022.03-.047.059-.07.089zM16.946 14.776l-3.818-3.813-.396.393-.88-.881a6.067 6.067 0 01-.638.738c-.23.232-.476.446-.737.642l.878.878-.396.393 3.819 3.821c.6.595 1.568.595 2.168 0a1.54 1.54 0 000-2.171z"/><path fill="#EA4E1B" d="M6.34 2.191c-1.087 0-1.967.88-1.967 1.966 0 1.087.88 2.732 1.966 2.732 1.086 0 1.967-1.645 1.967-2.732 0-1.086-.88-1.966-1.967-1.966z"/></svg>