<svg xmlns="http://www.w3.org/2000/svg" width="40" height="42" fill="none" viewBox="0 0 40 42"><circle cx="20" cy="21.725" r="20" fill="#F6B600" opacity=".1"/><g fill="#F6B600" clip-path="url(#clip0_952_4512)"><path d="M26.99 20.68L20 24.873l-6.99-4.195a.666.666 0 1 0-.686 1.144l7.333 4.4a.667.667 0 0 0 .687 0l7.333-4.4a.667.667 0 1 0-.686-1.144h-.001z"/><path d="M26.99 23.725L20 27.919l-6.99-4.194a.668.668 0 00-.686 1.143l7.333 4.4a.667.667 0 00.687 0l7.333-4.4a.667.667 0 00-.686-1.143h-.001zM20 23.211c-.36 0-.713-.098-1.02-.283l-6.657-3.994a.667.667 0 010-1.143l6.656-3.994a1.982 1.982 0 012.041 0l6.657 3.994a.667.667 0 010 1.143l-6.657 3.994a1.984 1.984 0 01-1.02.283zm-6.037-4.848l5.704 3.422a.649.649 0 00.666 0l5.704-3.422-5.704-3.422a.65.65 0 00-.666 0l-5.705 3.422z"/></g><defs><clipPath id="clip0_952_4512"><path fill="#fff" d="M0 0h16v16H0z" transform="translate(12 13.363)"/></clipPath></defs></svg>