<svg xmlns="http://www.w3.org/2000/svg" width="40" height="42" fill="none" viewBox="0 0 40 42"><circle cx="20" cy="21.725" r="20" fill="#F6B600" opacity=".1"/><g fill="#EA4E1B" clip-path="url(#clip0_952_4453)"><path d="M24.667 14.696H24v-.667a.666.666 0 1 0-1.333 0v.667h-5.334v-.667a.667.667 0 1 0-1.333 0v.667h-.667A3.337 3.337 0 0 0 12 18.029v8a3.338 3.338 0 0 0 3.333 3.334h9.334A3.337 3.337 0 0 0 28 26.029v-8a3.337 3.337 0 0 0-3.333-3.333zm-11.334 3.333a2 2 0 0 1 2-2h9.334a2 2 0 0 1 2 2v.667H13.333v-.667zm11.334 10h-9.334a2 2 0 0 1-2-2v-6h13.334v6a2 2 0 0 1-2 2z"/><path d="M20 24.363a1 1 0 100-2 1 1 0 000 2zM16.667 24.363a1 1 0 100-2 1 1 0 000 2zM23.333 24.363a1 1 0 100-2 1 1 0 000 2z"/></g><defs><clipPath id="clip0_952_4453"><path fill="#fff" d="M0 0h16v16H0z" transform="translate(12 13.363)"/></clipPath></defs></svg>