<svg xmlns="http://www.w3.org/2000/svg" width="40" height="42" fill="none" viewBox="0 0 40 42"><circle cx="20" cy="21.725" r="20" fill="#8A8A8A" opacity=".1"/><g clip-path="url(#clip0_952_2032)"><path fill="#8A8A8A" d="M24.667 26.696h-9.334A3.337 3.337 0 0 1 12 23.363v-4a3.337 3.337 0 0 1 3.333-3.334h9.334A3.337 3.337 0 0 1 28 19.363v4a3.338 3.338 0 0 1-3.333 3.333zm-9.334-9.333a2 2 0 0 0-2 2v4a2 2 0 0 0 2 2h9.334a2 2 0 0 0 2-2v-4a2 2 0 0 0-2-2h-9.334zM20 24.029a2.667 2.667 0 1 1 0-5.333 2.667 2.667 0 0 1 0 5.333zm0-4a1.334 1.334 0 1 0 0 2.668 1.334 1.334 0 0 0 0-2.668zm-4.667-1.333a.667.667 0 1 0 0 1.334.667.667 0 0 0 0-1.334zm8.667.667a.667.667 0 1 0 1.334 0 .667.667 0 0 0-1.334 0zm-8.667 3.333a.667.667 0 1 0 0 1.334.667.667 0 0 0 0-1.334zm8.667.667a.667.667 0 1 0 1.334 0 .667.667 0 0 0-1.334 0z"/></g><defs><clipPath id="clip0_952_2032"><path fill="#fff" d="M0 0h16v16H0z" transform="translate(12 13.363)"/></clipPath></defs></svg>