<svg xmlns="http://www.w3.org/2000/svg" width="40" height="42" fill="none" viewBox="0 0 40 42"><circle cx="20" cy="21.725" r="20" fill="#03A65A" opacity=".1"/><g fill="#03A65A" clip-path="url(#clip0_952_1476)"><path d="M19.972 29.368l-.465-.398c-.64-.537-6.235-5.368-6.235-8.902a6.7 6.7 0 1 1 13.4 0c0 3.534-5.595 8.365-6.233 8.904l-.467.396zm0-14.55a5.257 5.257 0 0 0-5.25 5.25c0 2.22 3.44 5.767 5.25 7.39 1.809-1.624 5.25-5.172 5.25-7.39a5.257 5.257 0 0 0-5.25-5.25z"/><path d="M19.972 22.724a2.656 2.656 0 1 1 0-5.311 2.656 2.656 0 0 1 0 5.31zm0-3.984a1.328 1.328 0 1 0 0 2.656 1.328 1.328 0 0 0 0-2.656z"/></g><defs><clipPath id="clip0_952_1476"><path fill="#fff" d="M0 0h16v16H0z" transform="translate(12 13.363)"/></clipPath></defs></svg>