<svg xmlns="http://www.w3.org/2000/svg" width="32" height="32" fill="none" viewBox="0 0 32 32"><path fill="#EA4E1B" d="M32 14.037a.621.621 0 0 0-.214-.47l-2.156-1.888c.464-.374.762-.947.762-1.589V9.064c0-2.757-2.242-5-5-5-2.756 0-5 2.243-5 5s2.244 5 5 5a.625.625 0 1 0 0-1.25 3.754 3.754 0 0 1-3.75-3.75 3.754 3.754 0 0 1 3.75-3.75 3.754 3.754 0 0 1 3.75 3.75v1.026a.79.79 0 0 1-1.58 0V7.429a.625.625 0 0 0-.195-.454 2.863 2.863 0 0 0-1.975-.786 2.878 2.878 0 0 0-2.875 2.875 2.878 2.878 0 0 0 2.875 2.875c.537 0 1.054-.148 1.503-.424.358.367.854.599 1.403.614a.624.624 0 0 0 .13.16l1.947 1.703-5 3.637V16a.625.625 0 1 0-1.25 0v2.54l-4.666 3.394-3.091-2.249a.625.625 0 0 0-.736 0l-3.091 2.25-10.888-7.922 3.556-3.113a.625.625 0 1 0-.823-.94L.23 13.552l-.001.001a.624.624 0 0 0-.23.484v17.338c0 .345.28.625.625.625h30.75c.345 0 .625-.28.625-.625V14.037zm-5.688-4.81v1.176a1.627 1.627 0 0 1-2.545-1.34 1.627 1.627 0 0 1 2.546-1.338v1.501zM1.25 15.264l10.229 7.441L1.25 30.147V15.265zM2.546 30.75L16 20.962l13.453 9.788H2.547zm28.204-.603l-10.229-7.441 10.229-7.441v14.882z"/><path fill="#EA4E1B" d="M21.084 4.202L16.41.152a.624.624 0 0 0-.816 0l-2.25 1.937a.625.625 0 1 0 .815.947l1.84-1.585 3.018 2.613H7.25a.625.625 0 0 0-.625.625v8.998a.625.625 0 1 0 1.25 0V5.314h12.8l-.006-.014h.006a.624.624 0 0 0 .41-1.098z"/><path fill="#EA4E1B" d="M16.087 10.375H9.838a.625.625 0 100 1.25h6.249a.625.625 0 100-1.25zM16 7.25H9.838a.625.625 0 100 1.25H16a.625.625 0 100-1.25zM7.692 15.766a.63.63 0 00-.442-.183.63.63 0 00-.625.625.629.629 0 00.625.625.627.627 0 00.625-.625.63.63 0 00-.183-.442zM20.224 13.456H19a.625.625 0 100 1.25h1.224a.625.625 0 100-1.25zM16.238 13.456h-.007a.625.625 0 000 1.25h.007a.625.625 0 000-1.25zM13.25 13.456H9.835a.625.625 0 100 1.25h3.415a.625.625 0 100-1.25z"/></svg>