<svg xmlns="http://www.w3.org/2000/svg" width="16" height="16" fill="none" viewBox="0 0 16 16"><path fill="#EA4E1B" d="M14.635 3.333H1.365a.689.689 0 0 0-.494.21.728.728 0 0 0-.204.508v7.898c0 .19.073.373.204.507a.69.69 0 0 0 .494.21h13.27a.69.69 0 0 0 .494-.21.728.728 0 0 0 .204-.507V4.05a.728.728 0 0 0-.204-.507.689.689 0 0 0-.494-.21zm0 6.82c0 .191-.074.374-.205.508a.689.689 0 0 1-.494.21.344.344 0 0 0-.247.106.364.364 0 0 0-.102.254c0 .19-.073.373-.204.507a.689.689 0 0 1-.494.21H3.11a.689.689 0 0 1-.494-.21.728.728 0 0 1-.204-.507.364.364 0 0 0-.103-.254.345.345 0 0 0-.247-.105.689.689 0 0 1-.494-.21.728.728 0 0 1-.204-.508V5.846c0-.19.073-.373.204-.508a.689.689 0 0 1 .494-.21.344.344 0 0 0 .247-.105.364.364 0 0 0 .103-.254c0-.19.073-.373.204-.507a.689.689 0 0 1 .494-.21h9.778c.185 0 .363.075.494.21a.728.728 0 0 1 .204.507c0 .095.037.187.102.254a.344.344 0 0 0 .247.105c.186 0 .363.076.494.21a.728.728 0 0 1 .205.508v4.308z"/><path fill="#EA4E1B" d="M8 9.333a1.333 1.333 0 1 0 0-2.666 1.333 1.333 0 0 0 0 2.666z"/><path fill="#EA4E1B" d="M12.941 4.667H3.06c0 .294-.112.577-.31.785A1.034 1.034 0 0 1 2 5.778v4.444c.28 0 .55.117.749.326.198.208.31.49.31.785h9.882c0-.294.112-.577.31-.785.199-.209.468-.326.749-.326V5.778c-.28 0-.55-.117-.749-.326a1.14 1.14 0 0 1-.31-.785zM4.471 8.37H3.41a.345.345 0 0 1-.249-.108A.38.38 0 0 1 3.06 8a.38.38 0 0 1 .103-.262.345.345 0 0 1 .25-.108H4.47c.093 0 .183.039.25.108A.38.38 0 0 1 4.823 8a.38.38 0 0 1-.104.262.345.345 0 0 1-.25.108zM8 10.222c-.419 0-.828-.13-1.176-.374a2.203 2.203 0 0 1-.78-.998 2.324 2.324 0 0 1-.121-1.284c.082-.43.283-.827.58-1.137.296-.311.673-.523 1.084-.609.41-.085.836-.041 1.223.127.387.168.718.453.95.818.233.366.358.795.358 1.235a2.28 2.28 0 0 1-.62 1.571c-.398.417-.936.651-1.498.651zm4.588-1.852H11.53a.345.345 0 0 1-.25-.108.38.38 0 0 1 0-.524.345.345 0 0 1 .25-.108h1.06c.093 0 .183.039.249.108A.38.38 0 0 1 12.94 8a.38.38 0 0 1-.103.262.345.345 0 0 1-.25.108z"/></svg>