<svg xmlns="http://www.w3.org/2000/svg" width="20" height="20" fill="none" viewBox="0 0 20 20"><path stroke="#8A8A8A" d="M18.407 14.01a2.358 2.358 0 0 0-1.885-2.305v-4.38A6.325 6.325 0 0 0 10.204 1a6.325 6.325 0 0 0-6.32 6.325v4.38A2.358 2.358 0 0 0 2 14.01a2.354 2.354 0 0 0 2.353 2.347h11.7a2.354 2.354 0 0 0 2.354-2.347z"/><path fill="#EA4E1B" d="M15 1c2.833 0 5 2.167 5 5s-2.167 5-5 5-5-2.167-5-5 2.167-5 5-5z"/><path stroke="#8A8A8A" d="M10.202 19.375c1.423 0 2.65-.877 3.16-2.128H7.043a3.415 3.415 0 0 0 3.16 2.128z"/></svg>