<svg xmlns="http://www.w3.org/2000/svg" width="13" height="12" fill="none" viewBox="0 0 13 12"><g clip-path="url(#clip0_109_16420)"><path fill="#8A8A8A" d="M6.238 5.367h-.391l.002.806.389-.001a.415.415 0 0 0 .417-.402.416.416 0 0 0-.417-.403z"/><path fill="#8A8A8A" d="M7.62 4.083L6.251 2.688 4.893 4.082a.352.352 0 0 1-.09.066l-1.802.936.949 1.699c.022.04.036.083.042.128l.253 2.055 1.935-.428a.35.35 0 0 1 .152 0l1.926.428.263-2.056a.35.35 0 0 1 .04-.126l.94-1.7-1.792-.936a.353.353 0 0 1-.089-.065zM6.238 6.875l-.392.001v.811a.352.352 0 0 1-.703 0v-2.67c0-.192.156-.353.351-.353h.744c.618 0 1.12.496 1.12 1.106 0 .61-.502 1.105-1.12 1.105z"/><path fill="#fff" d="M10.492 1.758a5.995 5.995 0 0 0-8.484 0 5.995 5.995 0 0 0 0 8.484 5.995 5.995 0 0 0 8.484 0 5.995 5.995 0 0 0 0-8.484zm-.201 3.35L9.209 7.065l-.303 2.372a.352.352 0 0 1-.425.299L6.256 9.24l-2.237.495a.352.352 0 0 1-.425-.3l-.292-2.37L2.21 5.11a.352.352 0 0 1 .145-.484L4.43 3.55l1.57-1.61a.351.351 0 0 1 .502 0l1.582 1.61 2.063 1.077c.174.091.24.308.145.481z"/></g><defs><clipPath id="clip0_109_16420"><path fill="#fff" d="M0 0h12v12H0z" transform="translate(.25)"/></clipPath></defs></svg>