<svg xmlns="http://www.w3.org/2000/svg" width="16" height="17" fill="none" viewBox="0 0 16 17"><g clip-path="url(#clip0_800_4503)"><path fill="#EA4E1B" d="M15.89 6.363a2.12 2.12 0 0 0-2.044-1.484h-2.912l-.885-2.758a2.151 2.151 0 0 0-4.098 0L5.067 4.88H2.154A2.151 2.151 0 0 0 .887 8.767L3.258 10.5l-.901 2.791a2.119 2.119 0 0 0 .79 2.409 2.119 2.119 0 0 0 2.532-.013L8 13.98l2.322 1.706a2.151 2.151 0 0 0 3.322-2.394l-.902-2.791 2.373-1.733a2.118 2.118 0 0 0 .776-2.404zM14.33 7.69l-2.763 2.02a.667.667 0 0 0-.241.743l1.05 3.247a.818.818 0 0 1-1.264.91l-2.716-2a.666.666 0 0 0-.79 0l-2.716 2a.818.818 0 0 1-1.267-.91l1.053-3.247a.667.667 0 0 0-.24-.744L1.67 7.69a.818.818 0 0 1 .483-1.478h3.4a.667.667 0 0 0 .635-.463l1.033-3.22a.818.818 0 0 1 1.557 0l1.034 3.22a.667.667 0 0 0 .634.463h3.4a.818.818 0 0 1 .483 1.478h-.001z"/></g><defs><clipPath id="clip0_800_4503"><path fill="#fff" d="M0 0h16v16H0z" transform="translate(0 .5)"/></clipPath></defs></svg>