<svg xmlns="http://www.w3.org/2000/svg" width="13" height="12" fill="none" viewBox="0 0 13 12"><path fill="#F6B600" d="M7.945 2.605l.705 1.41a.88.88 0 00.565.42l1.275.21c.815.135 1.005.725.42 1.315l-.995.995a.863.863 0 00-.205.725l.285 1.23c.225.97-.295 1.35-1.15.84L7.65 9.04a.849.849 0 00-.79 0l-1.195.71c-.855.505-1.375.13-1.15-.84L4.8 7.68c.045-.24-.05-.565-.215-.73l-.995-.995c-.585-.585-.395-1.175.42-1.315l1.275-.21a.864.864 0 00.565-.42l.705-1.41c.385-.76 1.005-.76 1.39.005zM4.25 2.875h-3A.378.378 0 01.875 2.5c0-.205.17-.375.375-.375h3c.205 0 .375.17.375.375s-.17.375-.375.375zM2.75 9.875h-1.5A.378.378 0 01.875 9.5c0-.205.17-.375.375-.375h1.5c.205 0 .375.17.375.375s-.17.375-.375.375zM1.75 6.375h-.5A.378.378 0 01.875 6c0-.205.17-.375.375-.375h.5c.205 0 .375.17.375.375s-.17.375-.375.375z"/></svg>