<svg xmlns="http://www.w3.org/2000/svg" width="29" height="29" fill="none" viewBox="0 0 29 29"><g fill="#EA4E1B" clip-path="url(#clip0_190_21161)"><path d="M9.554 8.26l3.244-3.246.024 15.903a1.75 1.75 0 0 0 3.5 0l-.024-15.883 3.225 3.225a1.75 1.75 0 1 0 2.475-2.474L18.25 2.038a5.25 5.25 0 0 0-7.425 0L7.08 5.785a1.75 1.75 0 0 0 2.475 2.474z"/><path d="M26.75 17.417a1.75 1.75 0 0 0-1.75 1.75v5.356a.478.478 0 0 1-.477.477H4.478A.478.478 0 0 1 4 24.523v-5.356a1.75 1.75 0 0 0-3.5 0v5.356A3.982 3.982 0 0 0 4.478 28.5h20.045a3.982 3.982 0 0 0 3.977-3.977v-5.356a1.75 1.75 0 0 0-1.75-1.75z"/></g><defs><clipPath id="clip0_190_21161"><path fill="#fff" d="M0 0h28v28H0z" transform="translate(.5 .5)"/></clipPath></defs></svg>