<svg xmlns="http://www.w3.org/2000/svg" width="20" height="20" fill="none" viewBox="0 0 20 20"><path fill="#8A8A8A" d="M10 0a5.28 5.28 0 00-5.273 5.273A5.28 5.28 0 0010 10.547a5.28 5.28 0 005.273-5.274A5.28 5.28 0 0010 0zm0 9.375a4.106 4.106 0 01-4.102-4.102A4.106 4.106 0 0110 1.172a4.106 4.106 0 014.102 4.101A4.106 4.106 0 0110 9.375zM16.561 13.992a7.518 7.518 0 00-5.39-2.273H8.829a7.518 7.518 0 00-5.39 2.273 7.685 7.685 0 00-2.227 5.422c0 .324.262.586.586.586h16.406a.586.586 0 00.586-.586 7.685 7.685 0 00-2.228-5.422zM2.41 18.828c.293-3.323 3.06-5.937 6.42-5.937h2.343c3.359 0 6.126 2.614 6.42 5.937H2.408z"/></svg>